<?xml version="1.0" encoding="utf-8" standalone="no"?>
<!DOCTYPE svg PUBLIC "-//W3C//DTD SVG 1.1//EN"
  "http://www.w3.org/Graphics/SVG/1.1/DTD/svg11.dtd">
<svg xmlns:xlink="http://www.w3.org/1999/xlink" width="590.4pt" height="388.8pt" viewBox="0 0 590.4 388.8" xmlns="http://www.w3.org/2000/svg" version="1.1">
 <metadata>
  <rdf:RDF xmlns:dc="http://purl.org/dc/elements/1.1/" xmlns:cc="http://creativecommons.org/ns#" xmlns:rdf="http://www.w3.org/1999/02/22-rdf-syntax-ns#">
   <cc:Work>
    <dc:type rdf:resource="http://purl.org/dc/dcmitype/StillImage"/>
    <dc:date>2026-06-13T11:21:12.866254</dc:date>
    <dc:format>image/svg+xml</dc:format>
    <dc:creator>
     <cc:Agent>
      <dc:title>Matplotlib v3.10.8, https://matplotlib.org/</dc:title>
     </cc:Agent>
    </dc:creator>
   </cc:Work>
  </rdf:RDF>
 </metadata>
 <defs>
  <style type="text/css">*{stroke-linejoin: round; stroke-linecap: butt}</style>
 </defs>
 <g id="figure_1">
  <g id="patch_1">
   <path d="M 0 388.8 
L 590.4 388.8 
L 590.4 0 
L 0 0 
z
" style="fill: #ffffff"/>
  </g>
  <g id="axes_1">
   <g id="patch_2">
    <path d="M 55.1 346.36 
L 571.65 346.36 
L 571.65 30.4 
L 55.1 30.4 
z
" style="fill: #ffffff"/>
   </g>
   <g id="matplotlib.axis_1">
    <g id="xtick_1">
     <g id="line2d_1">
      <path d="M 55.1 346.36 
L 55.1 30.4 
" clip-path="url(#pc3d223f7ad)" style="fill: none; stroke: #b0b0b0; stroke-opacity: 0.5; stroke-width: 0.4; stroke-linecap: square"/>
     </g>
     <g id="line2d_2">
      <defs>
       <path id="m69b28be2da" d="M 0 0 
L 0 3.5 
" style="stroke: #000000; stroke-width: 0.8"/>
      </defs>
      <g>
       <use xlink:href="#m69b28be2da" x="55.1" y="346.36" style="stroke: #000000; stroke-width: 0.8"/>
      </g>
     </g>
     <g id="text_1">
      <!-- 0.0 -->
      <g transform="translate(47.148438 360.958438) scale(0.1 -0.1)">
       <defs>
        <path id="DejaVuSans-30" d="M 2034 4250 
Q 1547 4250 1301 3770 
Q 1056 3291 1056 2328 
Q 1056 1369 1301 889 
Q 1547 409 2034 409 
Q 2525 409 2770 889 
Q 3016 1369 3016 2328 
Q 3016 3291 2770 3770 
Q 2525 4250 2034 4250 
z
M 2034 4750 
Q 2819 4750 3233 4129 
Q 3647 3509 3647 2328 
Q 3647 1150 3233 529 
Q 2819 -91 2034 -91 
Q 1250 -91 836 529 
Q 422 1150 422 2328 
Q 422 3509 836 4129 
Q 1250 4750 2034 4750 
z
" transform="scale(0.015625)"/>
        <path id="DejaVuSans-2e" d="M 684 794 
L 1344 794 
L 1344 0 
L 684 0 
L 684 794 
z
" transform="scale(0.015625)"/>
       </defs>
       <use xlink:href="#DejaVuSans-30"/>
       <use xlink:href="#DejaVuSans-2e" transform="translate(63.623047 0)"/>
       <use xlink:href="#DejaVuSans-30" transform="translate(95.410156 0)"/>
      </g>
     </g>
    </g>
    <g id="xtick_2">
     <g id="line2d_3">
      <path d="M 158.41 346.36 
L 158.41 30.4 
" clip-path="url(#pc3d223f7ad)" style="fill: none; stroke: #b0b0b0; stroke-opacity: 0.5; stroke-width: 0.4; stroke-linecap: square"/>
     </g>
     <g id="line2d_4">
      <g>
       <use xlink:href="#m69b28be2da" x="158.41" y="346.36" style="stroke: #000000; stroke-width: 0.8"/>
      </g>
     </g>
     <g id="text_2">
      <!-- 0.2 -->
      <g transform="translate(150.458438 360.958438) scale(0.1 -0.1)">
       <defs>
        <path id="DejaVuSans-32" d="M 1228 531 
L 3431 531 
L 3431 0 
L 469 0 
L 469 531 
Q 828 903 1448 1529 
Q 2069 2156 2228 2338 
Q 2531 2678 2651 2914 
Q 2772 3150 2772 3378 
Q 2772 3750 2511 3984 
Q 2250 4219 1831 4219 
Q 1534 4219 1204 4116 
Q 875 4013 500 3803 
L 500 4441 
Q 881 4594 1212 4672 
Q 1544 4750 1819 4750 
Q 2544 4750 2975 4387 
Q 3406 4025 3406 3419 
Q 3406 3131 3298 2873 
Q 3191 2616 2906 2266 
Q 2828 2175 2409 1742 
Q 1991 1309 1228 531 
z
" transform="scale(0.015625)"/>
       </defs>
       <use xlink:href="#DejaVuSans-30"/>
       <use xlink:href="#DejaVuSans-2e" transform="translate(63.623047 0)"/>
       <use xlink:href="#DejaVuSans-32" transform="translate(95.410156 0)"/>
      </g>
     </g>
    </g>
    <g id="xtick_3">
     <g id="line2d_5">
      <path d="M 261.72 346.36 
L 261.72 30.4 
" clip-path="url(#pc3d223f7ad)" style="fill: none; stroke: #b0b0b0; stroke-opacity: 0.5; stroke-width: 0.4; stroke-linecap: square"/>
     </g>
     <g id="line2d_6">
      <g>
       <use xlink:href="#m69b28be2da" x="261.72" y="346.36" style="stroke: #000000; stroke-width: 0.8"/>
      </g>
     </g>
     <g id="text_3">
      <!-- 0.4 -->
      <g transform="translate(253.768438 360.958438) scale(0.1 -0.1)">
       <defs>
        <path id="DejaVuSans-34" d="M 2419 4116 
L 825 1625 
L 2419 1625 
L 2419 4116 
z
M 2253 4666 
L 3047 4666 
L 3047 1625 
L 3713 1625 
L 3713 1100 
L 3047 1100 
L 3047 0 
L 2419 0 
L 2419 1100 
L 313 1100 
L 313 1709 
L 2253 4666 
z
" transform="scale(0.015625)"/>
       </defs>
       <use xlink:href="#DejaVuSans-30"/>
       <use xlink:href="#DejaVuSans-2e" transform="translate(63.623047 0)"/>
       <use xlink:href="#DejaVuSans-34" transform="translate(95.410156 0)"/>
      </g>
     </g>
    </g>
    <g id="xtick_4">
     <g id="line2d_7">
      <path d="M 365.03 346.36 
L 365.03 30.4 
" clip-path="url(#pc3d223f7ad)" style="fill: none; stroke: #b0b0b0; stroke-opacity: 0.5; stroke-width: 0.4; stroke-linecap: square"/>
     </g>
     <g id="line2d_8">
      <g>
       <use xlink:href="#m69b28be2da" x="365.03" y="346.36" style="stroke: #000000; stroke-width: 0.8"/>
      </g>
     </g>
     <g id="text_4">
      <!-- 0.6 -->
      <g transform="translate(357.078438 360.958438) scale(0.1 -0.1)">
       <defs>
        <path id="DejaVuSans-36" d="M 2113 2584 
Q 1688 2584 1439 2293 
Q 1191 2003 1191 1497 
Q 1191 994 1439 701 
Q 1688 409 2113 409 
Q 2538 409 2786 701 
Q 3034 994 3034 1497 
Q 3034 2003 2786 2293 
Q 2538 2584 2113 2584 
z
M 3366 4563 
L 3366 3988 
Q 3128 4100 2886 4159 
Q 2644 4219 2406 4219 
Q 1781 4219 1451 3797 
Q 1122 3375 1075 2522 
Q 1259 2794 1537 2939 
Q 1816 3084 2150 3084 
Q 2853 3084 3261 2657 
Q 3669 2231 3669 1497 
Q 3669 778 3244 343 
Q 2819 -91 2113 -91 
Q 1303 -91 875 529 
Q 447 1150 447 2328 
Q 447 3434 972 4092 
Q 1497 4750 2381 4750 
Q 2619 4750 2861 4703 
Q 3103 4656 3366 4563 
z
" transform="scale(0.015625)"/>
       </defs>
       <use xlink:href="#DejaVuSans-30"/>
       <use xlink:href="#DejaVuSans-2e" transform="translate(63.623047 0)"/>
       <use xlink:href="#DejaVuSans-36" transform="translate(95.410156 0)"/>
      </g>
     </g>
    </g>
    <g id="xtick_5">
     <g id="line2d_9">
      <path d="M 468.34 346.36 
L 468.34 30.4 
" clip-path="url(#pc3d223f7ad)" style="fill: none; stroke: #b0b0b0; stroke-opacity: 0.5; stroke-width: 0.4; stroke-linecap: square"/>
     </g>
     <g id="line2d_10">
      <g>
       <use xlink:href="#m69b28be2da" x="468.34" y="346.36" style="stroke: #000000; stroke-width: 0.8"/>
      </g>
     </g>
     <g id="text_5">
      <!-- 0.8 -->
      <g transform="translate(460.388438 360.958438) scale(0.1 -0.1)">
       <defs>
        <path id="DejaVuSans-38" d="M 2034 2216 
Q 1584 2216 1326 1975 
Q 1069 1734 1069 1313 
Q 1069 891 1326 650 
Q 1584 409 2034 409 
Q 2484 409 2743 651 
Q 3003 894 3003 1313 
Q 3003 1734 2745 1975 
Q 2488 2216 2034 2216 
z
M 1403 2484 
Q 997 2584 770 2862 
Q 544 3141 544 3541 
Q 544 4100 942 4425 
Q 1341 4750 2034 4750 
Q 2731 4750 3128 4425 
Q 3525 4100 3525 3541 
Q 3525 3141 3298 2862 
Q 3072 2584 2669 2484 
Q 3125 2378 3379 2068 
Q 3634 1759 3634 1313 
Q 3634 634 3220 271 
Q 2806 -91 2034 -91 
Q 1263 -91 848 271 
Q 434 634 434 1313 
Q 434 1759 690 2068 
Q 947 2378 1403 2484 
z
M 1172 3481 
Q 1172 3119 1398 2916 
Q 1625 2713 2034 2713 
Q 2441 2713 2670 2916 
Q 2900 3119 2900 3481 
Q 2900 3844 2670 4047 
Q 2441 4250 2034 4250 
Q 1625 4250 1398 4047 
Q 1172 3844 1172 3481 
z
" transform="scale(0.015625)"/>
       </defs>
       <use xlink:href="#DejaVuSans-30"/>
       <use xlink:href="#DejaVuSans-2e" transform="translate(63.623047 0)"/>
       <use xlink:href="#DejaVuSans-38" transform="translate(95.410156 0)"/>
      </g>
     </g>
    </g>
    <g id="xtick_6">
     <g id="line2d_11">
      <path d="M 571.65 346.36 
L 571.65 30.4 
" clip-path="url(#pc3d223f7ad)" style="fill: none; stroke: #b0b0b0; stroke-opacity: 0.5; stroke-width: 0.4; stroke-linecap: square"/>
     </g>
     <g id="line2d_12">
      <g>
       <use xlink:href="#m69b28be2da" x="571.65" y="346.36" style="stroke: #000000; stroke-width: 0.8"/>
      </g>
     </g>
     <g id="text_6">
      <!-- 1.0 -->
      <g transform="translate(563.698437 360.958438) scale(0.1 -0.1)">
       <defs>
        <path id="DejaVuSans-31" d="M 794 531 
L 1825 531 
L 1825 4091 
L 703 3866 
L 703 4441 
L 1819 4666 
L 2450 4666 
L 2450 531 
L 3481 531 
L 3481 0 
L 794 0 
L 794 531 
z
" transform="scale(0.015625)"/>
       </defs>
       <use xlink:href="#DejaVuSans-31"/>
       <use xlink:href="#DejaVuSans-2e" transform="translate(63.623047 0)"/>
       <use xlink:href="#DejaVuSans-30" transform="translate(95.410156 0)"/>
      </g>
     </g>
    </g>
    <g id="text_7">
     <!-- coverage  (fraction of items the model answers) -->
     <g transform="translate(180.709844 375.396406) scale(0.11 -0.11)">
      <defs>
       <path id="DejaVuSans-63" d="M 3122 3366 
L 3122 2828 
Q 2878 2963 2633 3030 
Q 2388 3097 2138 3097 
Q 1578 3097 1268 2742 
Q 959 2388 959 1747 
Q 959 1106 1268 751 
Q 1578 397 2138 397 
Q 2388 397 2633 464 
Q 2878 531 3122 666 
L 3122 134 
Q 2881 22 2623 -34 
Q 2366 -91 2075 -91 
Q 1284 -91 818 406 
Q 353 903 353 1747 
Q 353 2603 823 3093 
Q 1294 3584 2113 3584 
Q 2378 3584 2631 3529 
Q 2884 3475 3122 3366 
z
" transform="scale(0.015625)"/>
       <path id="DejaVuSans-6f" d="M 1959 3097 
Q 1497 3097 1228 2736 
Q 959 2375 959 1747 
Q 959 1119 1226 758 
Q 1494 397 1959 397 
Q 2419 397 2687 759 
Q 2956 1122 2956 1747 
Q 2956 2369 2687 2733 
Q 2419 3097 1959 3097 
z
M 1959 3584 
Q 2709 3584 3137 3096 
Q 3566 2609 3566 1747 
Q 3566 888 3137 398 
Q 2709 -91 1959 -91 
Q 1206 -91 779 398 
Q 353 888 353 1747 
Q 353 2609 779 3096 
Q 1206 3584 1959 3584 
z
" transform="scale(0.015625)"/>
       <path id="DejaVuSans-76" d="M 191 3500 
L 800 3500 
L 1894 563 
L 2988 3500 
L 3597 3500 
L 2284 0 
L 1503 0 
L 191 3500 
z
" transform="scale(0.015625)"/>
       <path id="DejaVuSans-65" d="M 3597 1894 
L 3597 1613 
L 953 1613 
Q 991 1019 1311 708 
Q 1631 397 2203 397 
Q 2534 397 2845 478 
Q 3156 559 3463 722 
L 3463 178 
Q 3153 47 2828 -22 
Q 2503 -91 2169 -91 
Q 1331 -91 842 396 
Q 353 884 353 1716 
Q 353 2575 817 3079 
Q 1281 3584 2069 3584 
Q 2775 3584 3186 3129 
Q 3597 2675 3597 1894 
z
M 3022 2063 
Q 3016 2534 2758 2815 
Q 2500 3097 2075 3097 
Q 1594 3097 1305 2825 
Q 1016 2553 972 2059 
L 3022 2063 
z
" transform="scale(0.015625)"/>
       <path id="DejaVuSans-72" d="M 2631 2963 
Q 2534 3019 2420 3045 
Q 2306 3072 2169 3072 
Q 1681 3072 1420 2755 
Q 1159 2438 1159 1844 
L 1159 0 
L 581 0 
L 581 3500 
L 1159 3500 
L 1159 2956 
Q 1341 3275 1631 3429 
Q 1922 3584 2338 3584 
Q 2397 3584 2469 3576 
Q 2541 3569 2628 3553 
L 2631 2963 
z
" transform="scale(0.015625)"/>
       <path id="DejaVuSans-61" d="M 2194 1759 
Q 1497 1759 1228 1600 
Q 959 1441 959 1056 
Q 959 750 1161 570 
Q 1363 391 1709 391 
Q 2188 391 2477 730 
Q 2766 1069 2766 1631 
L 2766 1759 
L 2194 1759 
z
M 3341 1997 
L 3341 0 
L 2766 0 
L 2766 531 
Q 2569 213 2275 61 
Q 1981 -91 1556 -91 
Q 1019 -91 701 211 
Q 384 513 384 1019 
Q 384 1609 779 1909 
Q 1175 2209 1959 2209 
L 2766 2209 
L 2766 2266 
Q 2766 2663 2505 2880 
Q 2244 3097 1772 3097 
Q 1472 3097 1187 3025 
Q 903 2953 641 2809 
L 641 3341 
Q 956 3463 1253 3523 
Q 1550 3584 1831 3584 
Q 2591 3584 2966 3190 
Q 3341 2797 3341 1997 
z
" transform="scale(0.015625)"/>
       <path id="DejaVuSans-67" d="M 2906 1791 
Q 2906 2416 2648 2759 
Q 2391 3103 1925 3103 
Q 1463 3103 1205 2759 
Q 947 2416 947 1791 
Q 947 1169 1205 825 
Q 1463 481 1925 481 
Q 2391 481 2648 825 
Q 2906 1169 2906 1791 
z
M 3481 434 
Q 3481 -459 3084 -895 
Q 2688 -1331 1869 -1331 
Q 1566 -1331 1297 -1286 
Q 1028 -1241 775 -1147 
L 775 -588 
Q 1028 -725 1275 -790 
Q 1522 -856 1778 -856 
Q 2344 -856 2625 -561 
Q 2906 -266 2906 331 
L 2906 616 
Q 2728 306 2450 153 
Q 2172 0 1784 0 
Q 1141 0 747 490 
Q 353 981 353 1791 
Q 353 2603 747 3093 
Q 1141 3584 1784 3584 
Q 2172 3584 2450 3431 
Q 2728 3278 2906 2969 
L 2906 3500 
L 3481 3500 
L 3481 434 
z
" transform="scale(0.015625)"/>
       <path id="DejaVuSans-20" transform="scale(0.015625)"/>
       <path id="DejaVuSans-28" d="M 1984 4856 
Q 1566 4138 1362 3434 
Q 1159 2731 1159 2009 
Q 1159 1288 1364 580 
Q 1569 -128 1984 -844 
L 1484 -844 
Q 1016 -109 783 600 
Q 550 1309 550 2009 
Q 550 2706 781 3412 
Q 1013 4119 1484 4856 
L 1984 4856 
z
" transform="scale(0.015625)"/>
       <path id="DejaVuSans-66" d="M 2375 4863 
L 2375 4384 
L 1825 4384 
Q 1516 4384 1395 4259 
Q 1275 4134 1275 3809 
L 1275 3500 
L 2222 3500 
L 2222 3053 
L 1275 3053 
L 1275 0 
L 697 0 
L 697 3053 
L 147 3053 
L 147 3500 
L 697 3500 
L 697 3744 
Q 697 4328 969 4595 
Q 1241 4863 1831 4863 
L 2375 4863 
z
" transform="scale(0.015625)"/>
       <path id="DejaVuSans-74" d="M 1172 4494 
L 1172 3500 
L 2356 3500 
L 2356 3053 
L 1172 3053 
L 1172 1153 
Q 1172 725 1289 603 
Q 1406 481 1766 481 
L 2356 481 
L 2356 0 
L 1766 0 
Q 1100 0 847 248 
Q 594 497 594 1153 
L 594 3053 
L 172 3053 
L 172 3500 
L 594 3500 
L 594 4494 
L 1172 4494 
z
" transform="scale(0.015625)"/>
       <path id="DejaVuSans-69" d="M 603 3500 
L 1178 3500 
L 1178 0 
L 603 0 
L 603 3500 
z
M 603 4863 
L 1178 4863 
L 1178 4134 
L 603 4134 
L 603 4863 
z
" transform="scale(0.015625)"/>
       <path id="DejaVuSans-6e" d="M 3513 2113 
L 3513 0 
L 2938 0 
L 2938 2094 
Q 2938 2591 2744 2837 
Q 2550 3084 2163 3084 
Q 1697 3084 1428 2787 
Q 1159 2491 1159 1978 
L 1159 0 
L 581 0 
L 581 3500 
L 1159 3500 
L 1159 2956 
Q 1366 3272 1645 3428 
Q 1925 3584 2291 3584 
Q 2894 3584 3203 3211 
Q 3513 2838 3513 2113 
z
" transform="scale(0.015625)"/>
       <path id="DejaVuSans-6d" d="M 3328 2828 
Q 3544 3216 3844 3400 
Q 4144 3584 4550 3584 
Q 5097 3584 5394 3201 
Q 5691 2819 5691 2113 
L 5691 0 
L 5113 0 
L 5113 2094 
Q 5113 2597 4934 2840 
Q 4756 3084 4391 3084 
Q 3944 3084 3684 2787 
Q 3425 2491 3425 1978 
L 3425 0 
L 2847 0 
L 2847 2094 
Q 2847 2600 2669 2842 
Q 2491 3084 2119 3084 
Q 1678 3084 1418 2786 
Q 1159 2488 1159 1978 
L 1159 0 
L 581 0 
L 581 3500 
L 1159 3500 
L 1159 2956 
Q 1356 3278 1631 3431 
Q 1906 3584 2284 3584 
Q 2666 3584 2933 3390 
Q 3200 3197 3328 2828 
z
" transform="scale(0.015625)"/>
       <path id="DejaVuSans-73" d="M 2834 3397 
L 2834 2853 
Q 2591 2978 2328 3040 
Q 2066 3103 1784 3103 
Q 1356 3103 1142 2972 
Q 928 2841 928 2578 
Q 928 2378 1081 2264 
Q 1234 2150 1697 2047 
L 1894 2003 
Q 2506 1872 2764 1633 
Q 3022 1394 3022 966 
Q 3022 478 2636 193 
Q 2250 -91 1575 -91 
Q 1294 -91 989 -36 
Q 684 19 347 128 
L 347 722 
Q 666 556 975 473 
Q 1284 391 1588 391 
Q 1994 391 2212 530 
Q 2431 669 2431 922 
Q 2431 1156 2273 1281 
Q 2116 1406 1581 1522 
L 1381 1569 
Q 847 1681 609 1914 
Q 372 2147 372 2553 
Q 372 3047 722 3315 
Q 1072 3584 1716 3584 
Q 2034 3584 2315 3537 
Q 2597 3491 2834 3397 
z
" transform="scale(0.015625)"/>
       <path id="DejaVuSans-68" d="M 3513 2113 
L 3513 0 
L 2938 0 
L 2938 2094 
Q 2938 2591 2744 2837 
Q 2550 3084 2163 3084 
Q 1697 3084 1428 2787 
Q 1159 2491 1159 1978 
L 1159 0 
L 581 0 
L 581 4863 
L 1159 4863 
L 1159 2956 
Q 1366 3272 1645 3428 
Q 1925 3584 2291 3584 
Q 2894 3584 3203 3211 
Q 3513 2838 3513 2113 
z
" transform="scale(0.015625)"/>
       <path id="DejaVuSans-64" d="M 2906 2969 
L 2906 4863 
L 3481 4863 
L 3481 0 
L 2906 0 
L 2906 525 
Q 2725 213 2448 61 
Q 2172 -91 1784 -91 
Q 1150 -91 751 415 
Q 353 922 353 1747 
Q 353 2572 751 3078 
Q 1150 3584 1784 3584 
Q 2172 3584 2448 3432 
Q 2725 3281 2906 2969 
z
M 947 1747 
Q 947 1113 1208 752 
Q 1469 391 1925 391 
Q 2381 391 2643 752 
Q 2906 1113 2906 1747 
Q 2906 2381 2643 2742 
Q 2381 3103 1925 3103 
Q 1469 3103 1208 2742 
Q 947 2381 947 1747 
z
" transform="scale(0.015625)"/>
       <path id="DejaVuSans-6c" d="M 603 4863 
L 1178 4863 
L 1178 0 
L 603 0 
L 603 4863 
z
" transform="scale(0.015625)"/>
       <path id="DejaVuSans-77" d="M 269 3500 
L 844 3500 
L 1563 769 
L 2278 3500 
L 2956 3500 
L 3675 769 
L 4391 3500 
L 4966 3500 
L 4050 0 
L 3372 0 
L 2619 2869 
L 1863 0 
L 1184 0 
L 269 3500 
z
" transform="scale(0.015625)"/>
       <path id="DejaVuSans-29" d="M 513 4856 
L 1013 4856 
Q 1481 4119 1714 3412 
Q 1947 2706 1947 2009 
Q 1947 1309 1714 600 
Q 1481 -109 1013 -844 
L 513 -844 
Q 928 -128 1133 580 
Q 1338 1288 1338 2009 
Q 1338 2731 1133 3434 
Q 928 4138 513 4856 
z
" transform="scale(0.015625)"/>
      </defs>
      <use xlink:href="#DejaVuSans-63"/>
      <use xlink:href="#DejaVuSans-6f" transform="translate(54.980469 0)"/>
      <use xlink:href="#DejaVuSans-76" transform="translate(116.162109 0)"/>
      <use xlink:href="#DejaVuSans-65" transform="translate(175.341797 0)"/>
      <use xlink:href="#DejaVuSans-72" transform="translate(236.865234 0)"/>
      <use xlink:href="#DejaVuSans-61" transform="translate(277.978516 0)"/>
      <use xlink:href="#DejaVuSans-67" transform="translate(339.257812 0)"/>
      <use xlink:href="#DejaVuSans-65" transform="translate(402.734375 0)"/>
      <use xlink:href="#DejaVuSans-20" transform="translate(464.257812 0)"/>
      <use xlink:href="#DejaVuSans-20" transform="translate(496.044922 0)"/>
      <use xlink:href="#DejaVuSans-28" transform="translate(527.832031 0)"/>
      <use xlink:href="#DejaVuSans-66" transform="translate(566.845703 0)"/>
      <use xlink:href="#DejaVuSans-72" transform="translate(602.050781 0)"/>
      <use xlink:href="#DejaVuSans-61" transform="translate(643.164062 0)"/>
      <use xlink:href="#DejaVuSans-63" transform="translate(704.443359 0)"/>
      <use xlink:href="#DejaVuSans-74" transform="translate(759.423828 0)"/>
      <use xlink:href="#DejaVuSans-69" transform="translate(798.632812 0)"/>
      <use xlink:href="#DejaVuSans-6f" transform="translate(826.416016 0)"/>
      <use xlink:href="#DejaVuSans-6e" transform="translate(887.597656 0)"/>
      <use xlink:href="#DejaVuSans-20" transform="translate(950.976562 0)"/>
      <use xlink:href="#DejaVuSans-6f" transform="translate(982.763672 0)"/>
      <use xlink:href="#DejaVuSans-66" transform="translate(1043.945312 0)"/>
      <use xlink:href="#DejaVuSans-20" transform="translate(1079.150391 0)"/>
      <use xlink:href="#DejaVuSans-69" transform="translate(1110.9375 0)"/>
      <use xlink:href="#DejaVuSans-74" transform="translate(1138.720703 0)"/>
      <use xlink:href="#DejaVuSans-65" transform="translate(1177.929688 0)"/>
      <use xlink:href="#DejaVuSans-6d" transform="translate(1239.453125 0)"/>
      <use xlink:href="#DejaVuSans-73" transform="translate(1336.865234 0)"/>
      <use xlink:href="#DejaVuSans-20" transform="translate(1388.964844 0)"/>
      <use xlink:href="#DejaVuSans-74" transform="translate(1420.751953 0)"/>
      <use xlink:href="#DejaVuSans-68" transform="translate(1459.960938 0)"/>
      <use xlink:href="#DejaVuSans-65" transform="translate(1523.339844 0)"/>
      <use xlink:href="#DejaVuSans-20" transform="translate(1584.863281 0)"/>
      <use xlink:href="#DejaVuSans-6d" transform="translate(1616.650391 0)"/>
      <use xlink:href="#DejaVuSans-6f" transform="translate(1714.0625 0)"/>
      <use xlink:href="#DejaVuSans-64" transform="translate(1775.244141 0)"/>
      <use xlink:href="#DejaVuSans-65" transform="translate(1838.720703 0)"/>
      <use xlink:href="#DejaVuSans-6c" transform="translate(1900.244141 0)"/>
      <use xlink:href="#DejaVuSans-20" transform="translate(1928.027344 0)"/>
      <use xlink:href="#DejaVuSans-61" transform="translate(1959.814453 0)"/>
      <use xlink:href="#DejaVuSans-6e" transform="translate(2021.09375 0)"/>
      <use xlink:href="#DejaVuSans-73" transform="translate(2084.472656 0)"/>
      <use xlink:href="#DejaVuSans-77" transform="translate(2136.572266 0)"/>
      <use xlink:href="#DejaVuSans-65" transform="translate(2218.359375 0)"/>
      <use xlink:href="#DejaVuSans-72" transform="translate(2279.882812 0)"/>
      <use xlink:href="#DejaVuSans-73" transform="translate(2320.996094 0)"/>
      <use xlink:href="#DejaVuSans-29" transform="translate(2373.095703 0)"/>
     </g>
    </g>
   </g>
   <g id="matplotlib.axis_2">
    <g id="ytick_1">
     <g id="line2d_13">
      <path d="M 55.1 346.36 
L 571.65 346.36 
" clip-path="url(#pc3d223f7ad)" style="fill: none; stroke: #b0b0b0; stroke-opacity: 0.5; stroke-width: 0.4; stroke-linecap: square"/>
     </g>
     <g id="line2d_14">
      <defs>
       <path id="m9762071810" d="M 0 0 
L -3.5 0 
" style="stroke: #000000; stroke-width: 0.8"/>
      </defs>
      <g>
       <use xlink:href="#m9762071810" x="55.1" y="346.36" style="stroke: #000000; stroke-width: 0.8"/>
      </g>
     </g>
     <g id="text_8">
      <!-- 0.00 -->
      <g transform="translate(25.834375 350.159219) scale(0.1 -0.1)">
       <use xlink:href="#DejaVuSans-30"/>
       <use xlink:href="#DejaVuSans-2e" transform="translate(63.623047 0)"/>
       <use xlink:href="#DejaVuSans-30" transform="translate(95.410156 0)"/>
       <use xlink:href="#DejaVuSans-30" transform="translate(159.033203 0)"/>
      </g>
     </g>
    </g>
    <g id="ytick_2">
     <g id="line2d_15">
      <path d="M 55.1 308.745714 
L 571.65 308.745714 
" clip-path="url(#pc3d223f7ad)" style="fill: none; stroke: #b0b0b0; stroke-opacity: 0.5; stroke-width: 0.4; stroke-linecap: square"/>
     </g>
     <g id="line2d_16">
      <g>
       <use xlink:href="#m9762071810" x="55.1" y="308.745714" style="stroke: #000000; stroke-width: 0.8"/>
      </g>
     </g>
     <g id="text_9">
      <!-- 0.05 -->
      <g transform="translate(25.834375 312.544933) scale(0.1 -0.1)">
       <defs>
        <path id="DejaVuSans-35" d="M 691 4666 
L 3169 4666 
L 3169 4134 
L 1269 4134 
L 1269 2991 
Q 1406 3038 1543 3061 
Q 1681 3084 1819 3084 
Q 2600 3084 3056 2656 
Q 3513 2228 3513 1497 
Q 3513 744 3044 326 
Q 2575 -91 1722 -91 
Q 1428 -91 1123 -41 
Q 819 9 494 109 
L 494 744 
Q 775 591 1075 516 
Q 1375 441 1709 441 
Q 2250 441 2565 725 
Q 2881 1009 2881 1497 
Q 2881 1984 2565 2268 
Q 2250 2553 1709 2553 
Q 1456 2553 1204 2497 
Q 953 2441 691 2322 
L 691 4666 
z
" transform="scale(0.015625)"/>
       </defs>
       <use xlink:href="#DejaVuSans-30"/>
       <use xlink:href="#DejaVuSans-2e" transform="translate(63.623047 0)"/>
       <use xlink:href="#DejaVuSans-30" transform="translate(95.410156 0)"/>
       <use xlink:href="#DejaVuSans-35" transform="translate(159.033203 0)"/>
      </g>
     </g>
    </g>
    <g id="ytick_3">
     <g id="line2d_17">
      <path d="M 55.1 271.131429 
L 571.65 271.131429 
" clip-path="url(#pc3d223f7ad)" style="fill: none; stroke: #b0b0b0; stroke-opacity: 0.5; stroke-width: 0.4; stroke-linecap: square"/>
     </g>
     <g id="line2d_18">
      <g>
       <use xlink:href="#m9762071810" x="55.1" y="271.131429" style="stroke: #000000; stroke-width: 0.8"/>
      </g>
     </g>
     <g id="text_10">
      <!-- 0.10 -->
      <g transform="translate(25.834375 274.930647) scale(0.1 -0.1)">
       <use xlink:href="#DejaVuSans-30"/>
       <use xlink:href="#DejaVuSans-2e" transform="translate(63.623047 0)"/>
       <use xlink:href="#DejaVuSans-31" transform="translate(95.410156 0)"/>
       <use xlink:href="#DejaVuSans-30" transform="translate(159.033203 0)"/>
      </g>
     </g>
    </g>
    <g id="ytick_4">
     <g id="line2d_19">
      <path d="M 55.1 233.517143 
L 571.65 233.517143 
" clip-path="url(#pc3d223f7ad)" style="fill: none; stroke: #b0b0b0; stroke-opacity: 0.5; stroke-width: 0.4; stroke-linecap: square"/>
     </g>
     <g id="line2d_20">
      <g>
       <use xlink:href="#m9762071810" x="55.1" y="233.517143" style="stroke: #000000; stroke-width: 0.8"/>
      </g>
     </g>
     <g id="text_11">
      <!-- 0.15 -->
      <g transform="translate(25.834375 237.316362) scale(0.1 -0.1)">
       <use xlink:href="#DejaVuSans-30"/>
       <use xlink:href="#DejaVuSans-2e" transform="translate(63.623047 0)"/>
       <use xlink:href="#DejaVuSans-31" transform="translate(95.410156 0)"/>
       <use xlink:href="#DejaVuSans-35" transform="translate(159.033203 0)"/>
      </g>
     </g>
    </g>
    <g id="ytick_5">
     <g id="line2d_21">
      <path d="M 55.1 195.902857 
L 571.65 195.902857 
" clip-path="url(#pc3d223f7ad)" style="fill: none; stroke: #b0b0b0; stroke-opacity: 0.5; stroke-width: 0.4; stroke-linecap: square"/>
     </g>
     <g id="line2d_22">
      <g>
       <use xlink:href="#m9762071810" x="55.1" y="195.902857" style="stroke: #000000; stroke-width: 0.8"/>
      </g>
     </g>
     <g id="text_12">
      <!-- 0.20 -->
      <g transform="translate(25.834375 199.702076) scale(0.1 -0.1)">
       <use xlink:href="#DejaVuSans-30"/>
       <use xlink:href="#DejaVuSans-2e" transform="translate(63.623047 0)"/>
       <use xlink:href="#DejaVuSans-32" transform="translate(95.410156 0)"/>
       <use xlink:href="#DejaVuSans-30" transform="translate(159.033203 0)"/>
      </g>
     </g>
    </g>
    <g id="ytick_6">
     <g id="line2d_23">
      <path d="M 55.1 158.288571 
L 571.65 158.288571 
" clip-path="url(#pc3d223f7ad)" style="fill: none; stroke: #b0b0b0; stroke-opacity: 0.5; stroke-width: 0.4; stroke-linecap: square"/>
     </g>
     <g id="line2d_24">
      <g>
       <use xlink:href="#m9762071810" x="55.1" y="158.288571" style="stroke: #000000; stroke-width: 0.8"/>
      </g>
     </g>
     <g id="text_13">
      <!-- 0.25 -->
      <g transform="translate(25.834375 162.08779) scale(0.1 -0.1)">
       <use xlink:href="#DejaVuSans-30"/>
       <use xlink:href="#DejaVuSans-2e" transform="translate(63.623047 0)"/>
       <use xlink:href="#DejaVuSans-32" transform="translate(95.410156 0)"/>
       <use xlink:href="#DejaVuSans-35" transform="translate(159.033203 0)"/>
      </g>
     </g>
    </g>
    <g id="ytick_7">
     <g id="line2d_25">
      <path d="M 55.1 120.674286 
L 571.65 120.674286 
" clip-path="url(#pc3d223f7ad)" style="fill: none; stroke: #b0b0b0; stroke-opacity: 0.5; stroke-width: 0.4; stroke-linecap: square"/>
     </g>
     <g id="line2d_26">
      <g>
       <use xlink:href="#m9762071810" x="55.1" y="120.674286" style="stroke: #000000; stroke-width: 0.8"/>
      </g>
     </g>
     <g id="text_14">
      <!-- 0.30 -->
      <g transform="translate(25.834375 124.473504) scale(0.1 -0.1)">
       <defs>
        <path id="DejaVuSans-33" d="M 2597 2516 
Q 3050 2419 3304 2112 
Q 3559 1806 3559 1356 
Q 3559 666 3084 287 
Q 2609 -91 1734 -91 
Q 1441 -91 1130 -33 
Q 819 25 488 141 
L 488 750 
Q 750 597 1062 519 
Q 1375 441 1716 441 
Q 2309 441 2620 675 
Q 2931 909 2931 1356 
Q 2931 1769 2642 2001 
Q 2353 2234 1838 2234 
L 1294 2234 
L 1294 2753 
L 1863 2753 
Q 2328 2753 2575 2939 
Q 2822 3125 2822 3475 
Q 2822 3834 2567 4026 
Q 2313 4219 1838 4219 
Q 1578 4219 1281 4162 
Q 984 4106 628 3988 
L 628 4550 
Q 988 4650 1302 4700 
Q 1616 4750 1894 4750 
Q 2613 4750 3031 4423 
Q 3450 4097 3450 3541 
Q 3450 3153 3228 2886 
Q 3006 2619 2597 2516 
z
" transform="scale(0.015625)"/>
       </defs>
       <use xlink:href="#DejaVuSans-30"/>
       <use xlink:href="#DejaVuSans-2e" transform="translate(63.623047 0)"/>
       <use xlink:href="#DejaVuSans-33" transform="translate(95.410156 0)"/>
       <use xlink:href="#DejaVuSans-30" transform="translate(159.033203 0)"/>
      </g>
     </g>
    </g>
    <g id="ytick_8">
     <g id="line2d_27">
      <path d="M 55.1 83.06 
L 571.65 83.06 
" clip-path="url(#pc3d223f7ad)" style="fill: none; stroke: #b0b0b0; stroke-opacity: 0.5; stroke-width: 0.4; stroke-linecap: square"/>
     </g>
     <g id="line2d_28">
      <g>
       <use xlink:href="#m9762071810" x="55.1" y="83.06" style="stroke: #000000; stroke-width: 0.8"/>
      </g>
     </g>
     <g id="text_15">
      <!-- 0.35 -->
      <g transform="translate(25.834375 86.859219) scale(0.1 -0.1)">
       <use xlink:href="#DejaVuSans-30"/>
       <use xlink:href="#DejaVuSans-2e" transform="translate(63.623047 0)"/>
       <use xlink:href="#DejaVuSans-33" transform="translate(95.410156 0)"/>
       <use xlink:href="#DejaVuSans-35" transform="translate(159.033203 0)"/>
      </g>
     </g>
    </g>
    <g id="ytick_9">
     <g id="line2d_29">
      <path d="M 55.1 45.445714 
L 571.65 45.445714 
" clip-path="url(#pc3d223f7ad)" style="fill: none; stroke: #b0b0b0; stroke-opacity: 0.5; stroke-width: 0.4; stroke-linecap: square"/>
     </g>
     <g id="line2d_30">
      <g>
       <use xlink:href="#m9762071810" x="55.1" y="45.445714" style="stroke: #000000; stroke-width: 0.8"/>
      </g>
     </g>
     <g id="text_16">
      <!-- 0.40 -->
      <g transform="translate(25.834375 49.244933) scale(0.1 -0.1)">
       <use xlink:href="#DejaVuSans-30"/>
       <use xlink:href="#DejaVuSans-2e" transform="translate(63.623047 0)"/>
       <use xlink:href="#DejaVuSans-34" transform="translate(95.410156 0)"/>
       <use xlink:href="#DejaVuSans-30" transform="translate(159.033203 0)"/>
      </g>
     </g>
    </g>
    <g id="text_17">
     <!-- risk  (error rate among answered) -->
     <g transform="translate(19.546719 281.421953) rotate(-90) scale(0.11 -0.11)">
      <defs>
       <path id="DejaVuSans-6b" d="M 581 4863 
L 1159 4863 
L 1159 1991 
L 2875 3500 
L 3609 3500 
L 1753 1863 
L 3688 0 
L 2938 0 
L 1159 1709 
L 1159 0 
L 581 0 
L 581 4863 
z
" transform="scale(0.015625)"/>
      </defs>
      <use xlink:href="#DejaVuSans-72"/>
      <use xlink:href="#DejaVuSans-69" transform="translate(41.113281 0)"/>
      <use xlink:href="#DejaVuSans-73" transform="translate(68.896484 0)"/>
      <use xlink:href="#DejaVuSans-6b" transform="translate(120.996094 0)"/>
      <use xlink:href="#DejaVuSans-20" transform="translate(178.90625 0)"/>
      <use xlink:href="#DejaVuSans-20" transform="translate(210.693359 0)"/>
      <use xlink:href="#DejaVuSans-28" transform="translate(242.480469 0)"/>
      <use xlink:href="#DejaVuSans-65" transform="translate(281.494141 0)"/>
      <use xlink:href="#DejaVuSans-72" transform="translate(343.017578 0)"/>
      <use xlink:href="#DejaVuSans-72" transform="translate(382.380859 0)"/>
      <use xlink:href="#DejaVuSans-6f" transform="translate(421.244141 0)"/>
      <use xlink:href="#DejaVuSans-72" transform="translate(482.425781 0)"/>
      <use xlink:href="#DejaVuSans-20" transform="translate(523.539062 0)"/>
      <use xlink:href="#DejaVuSans-72" transform="translate(555.326172 0)"/>
      <use xlink:href="#DejaVuSans-61" transform="translate(596.439453 0)"/>
      <use xlink:href="#DejaVuSans-74" transform="translate(657.71875 0)"/>
      <use xlink:href="#DejaVuSans-65" transform="translate(696.927734 0)"/>
      <use xlink:href="#DejaVuSans-20" transform="translate(758.451172 0)"/>
      <use xlink:href="#DejaVuSans-61" transform="translate(790.238281 0)"/>
      <use xlink:href="#DejaVuSans-6d" transform="translate(851.517578 0)"/>
      <use xlink:href="#DejaVuSans-6f" transform="translate(948.929688 0)"/>
      <use xlink:href="#DejaVuSans-6e" transform="translate(1010.111328 0)"/>
      <use xlink:href="#DejaVuSans-67" transform="translate(1073.490234 0)"/>
      <use xlink:href="#DejaVuSans-20" transform="translate(1136.966797 0)"/>
      <use xlink:href="#DejaVuSans-61" transform="translate(1168.753906 0)"/>
      <use xlink:href="#DejaVuSans-6e" transform="translate(1230.033203 0)"/>
      <use xlink:href="#DejaVuSans-73" transform="translate(1293.412109 0)"/>
      <use xlink:href="#DejaVuSans-77" transform="translate(1345.511719 0)"/>
      <use xlink:href="#DejaVuSans-65" transform="translate(1427.298828 0)"/>
      <use xlink:href="#DejaVuSans-72" transform="translate(1488.822266 0)"/>
      <use xlink:href="#DejaVuSans-65" transform="translate(1527.685547 0)"/>
      <use xlink:href="#DejaVuSans-64" transform="translate(1589.208984 0)"/>
      <use xlink:href="#DejaVuSans-29" transform="translate(1652.685547 0)"/>
     </g>
    </g>
   </g>
   <g id="line2d_31">
    <path d="M 55.907109 346.36 
L 56.714219 346.36 
L 57.521328 306.238095 
L 58.328438 286.177143 
L 59.135547 274.140571 
L 59.942656 271.131429 
L 60.749766 264.683265 
L 61.556875 263.608571 
L 62.363984 262.772698 
L 63.171094 259.094857 
L 63.978203 258.821299 
L 64.785313 261.100952 
L 65.592422 265.344615 
L 66.399531 264.683265 
L 67.206641 256.085714 
L 68.820859 252.545546 
L 69.627969 252.742222 
L 70.435078 256.085714 
L 71.242188 260.599429 
L 72.856406 257.453506 
L 73.663516 256.085714 
L 74.470625 256.085714 
L 75.277734 257.289371 
L 76.084844 252.613626 
L 76.891953 251.627725 
L 78.506172 251.935172 
L 79.313281 253.076571 
L 80.120391 250.261567 
L 80.9275 248.562857 
L 81.734609 248.790823 
L 82.541719 247.235294 
L 84.963047 250.392741 
L 85.770156 252.126316 
L 86.577266 254.542564 
L 87.384375 253.828857 
L 89.805703 256.085714 
L 91.419922 254.748317 
L 92.227031 253.469068 
L 93.034141 254.164985 
L 95.455469 257.8912 
L 96.262578 257.855798 
L 97.069688 254.928352 
L 98.683906 250.513228 
L 99.491016 246.23761 
L 100.298125 243.726735 
L 101.105234 240.77604 
L 101.912344 238.964729 
L 102.719453 234.664697 
L 104.333672 227.474192 
L 105.140781 226.479631 
L 105.947891 225.994286 
L 107.562109 223.216615 
L 108.369219 222.34684 
L 109.176328 219.706525 
L 111.597656 214.817469 
L 112.404766 212.431952 
L 114.018984 209.505832 
L 114.826094 209.728649 
L 115.633203 205.933333 
L 116.440313 203.425714 
L 117.247422 202.937217 
L 118.054531 201.303883 
L 118.861641 200.092803 
L 119.66875 199.664286 
L 120.475859 198.503351 
L 122.090078 199.165783 
L 123.704297 194.840807 
L 124.511406 194.153355 
L 125.318516 190.71468 
L 127.739844 186.875429 
L 128.546953 186.643956 
L 129.354062 186.090435 
L 130.161172 186.519508 
L 130.968281 186.29921 
L 131.775391 184.816541 
L 132.5825 183.678214 
L 133.389609 180.702032 
L 134.196719 179.01481 
L 135.003828 179.185397 
L 135.810938 179.653486 
L 136.618047 181.00611 
L 137.425156 182.627227 
L 143.074922 189.55329 
L 143.882031 190.15813 
L 144.689141 189.93879 
L 145.49625 190.798061 
L 146.303359 191.375828 
L 147.110469 191.415539 
L 148.724688 193.568177 
L 149.531797 194.359707 
L 150.338906 194.627797 
L 151.146016 195.14425 
L 151.953125 196.153619 
L 153.567344 197.136112 
L 154.374453 198.349315 
L 155.181562 199.057604 
L 156.795781 200.918095 
L 157.602891 201.352486 
L 158.41 201.545 
L 159.217109 201.967796 
L 160.024219 203.078505 
L 160.831328 203.712846 
L 161.638438 203.881645 
L 162.445547 204.952911 
L 163.252656 203.537996 
L 164.866875 201.213109 
L 165.673984 199.417185 
L 166.481094 198.519503 
L 167.288203 196.768798 
L 168.095312 195.47298 
L 168.902422 195.262614 
L 169.709531 194.631388 
L 170.516641 193.377702 
L 171.32375 192.768333 
L 172.937969 189.719687 
L 174.552188 187.160077 
L 176.166406 184.267505 
L 177.780625 182.440902 
L 178.587734 181.152157 
L 179.394844 179.293952 
L 180.201953 178.430415 
L 181.009062 178.15663 
L 181.816172 178.077998 
L 183.430391 176.409668 
L 184.2375 175.215 
L 185.044609 173.474463 
L 185.851719 173.61291 
L 186.658828 173.380438 
L 187.465937 173.334286 
L 189.080156 174.331291 
L 189.887266 174.64065 
L 190.694375 174.229864 
L 191.501484 174.001995 
L 192.308594 173.599798 
L 193.115703 173.378279 
L 193.922812 173.684186 
L 195.537031 173.247816 
L 196.344141 172.86142 
L 197.958359 172.781759 
L 198.765469 172.573547 
L 199.572578 172.703879 
L 200.379687 172.665587 
L 201.186797 172.295217 
L 201.993906 172.424929 
L 202.801016 172.224356 
L 203.608125 172.189503 
L 205.222344 172.768049 
L 206.836563 172.694043 
L 207.643672 172.816841 
L 208.450781 173.255098 
L 209.257891 172.743485 
L 210.065 172.707381 
L 210.872109 172.203908 
L 211.679219 172.636289 
L 212.486328 172.909919 
L 213.293437 172.873703 
L 214.100547 172.532357 
L 214.907656 172.954343 
L 215.714766 172.767236 
L 217.328984 173.596276 
L 218.136094 173.408769 
L 218.943203 173.964279 
L 219.750313 174.219328 
L 220.557422 174.325101 
L 221.364531 174.721997 
L 222.171641 171.916936 
L 223.785859 167.9711 
L 224.592969 165.238259 
L 228.628516 153.914817 
L 230.242734 152.499092 
L 231.049844 152.146055 
L 231.856953 151.246628 
L 233.471172 148.79139 
L 234.278281 147.919228 
L 235.085391 147.459705 
L 237.506719 143.708875 
L 238.313828 143.010875 
L 239.120938 141.923058 
L 239.928047 141.238952 
L 240.735156 139.906634 
L 241.542266 139.627978 
L 243.156484 138.173807 
L 244.770703 137.128535 
L 246.384922 135.08516 
L 247.999141 133.957322 
L 249.613359 131.599597 
L 251.227578 130.02368 
L 252.841797 128.227848 
L 253.648906 128.258304 
L 254.456016 127.313892 
L 255.263125 126.862442 
L 257.684453 124.570586 
L 258.491562 123.898367 
L 259.298672 123.469339 
L 260.105781 122.569809 
L 260.912891 121.913345 
L 262.527109 120.030306 
L 263.334219 119.507951 
L 264.141328 118.524898 
L 264.948438 117.780879 
L 265.755547 117.38844 
L 266.562656 116.654438 
L 267.369766 116.269267 
L 268.176875 116.342944 
L 270.598203 114.64473 
L 272.212422 113.570919 
L 273.019531 113.652952 
L 273.826641 113.179188 
L 274.63375 111.270714 
L 275.440859 112.131847 
L 276.247969 111.229531 
L 278.669297 110.408437 
L 279.476406 109.525303 
L 281.090625 109.927347 
L 281.897734 109.269527 
L 282.704844 109.256616 
L 284.319062 107.853642 
L 285.126172 107.634667 
L 286.740391 106.257661 
L 287.5475 106.046508 
L 288.354609 106.149184 
L 289.161719 105.317281 
L 289.968828 105.318351 
L 290.775937 104.907202 
L 291.583047 104.704261 
L 292.390156 104.707405 
L 293.197266 104.506518 
L 294.004375 104.103668 
L 294.811484 103.399577 
L 295.618594 103.003145 
L 297.232812 102.519124 
L 298.847031 101.842233 
L 301.268359 101.287513 
L 302.075469 100.613333 
L 308.532344 99.207789 
L 309.339453 99.228172 
L 310.146563 99.057975 
L 310.953672 98.414223 
L 311.760781 98.058401 
L 312.567891 98.082132 
L 315.796328 96.964476 
L 316.603437 96.526843 
L 317.410547 96.36967 
L 319.024766 96.702368 
L 319.831875 96.179129 
L 321.446094 95.598095 
L 322.253203 95.355667 
L 323.060313 95.295972 
L 323.867422 94.875178 
L 324.674531 94.727186 
L 326.28875 93.986054 
L 327.095859 93.48485 
L 330.324297 92.656607 
L 331.131406 92.166617 
L 331.938516 91.942674 
L 334.359844 90.756796 
L 335.166953 90.539498 
L 335.974063 90.582857 
L 337.588281 90.067004 
L 339.2025 89.557013 
L 340.816719 89.562809 
L 341.623828 88.675654 
L 342.430938 88.892327 
L 344.852266 87.858703 
L 346.466484 87.290305 
L 347.273594 86.675959 
L 348.080703 86.479481 
L 348.887812 85.953407 
L 352.11625 85.840186 
L 352.923359 85.649168 
L 354.537578 85.919091 
L 355.344688 85.64851 
L 356.151797 86.105446 
L 357.766016 86.450301 
L 358.573125 86.901459 
L 359.380234 86.791497 
L 360.187344 86.443296 
L 360.994453 86.414519 
L 361.801562 86.227519 
L 362.608672 86.27844 
L 363.415781 86.565415 
L 364.222891 86.693756 
L 365.837109 86.479481 
L 366.644219 86.607047 
L 367.451328 86.345175 
L 368.258437 86.239764 
L 369.065547 85.902828 
L 371.486875 85.900262 
L 373.101094 86.07678 
L 374.715312 85.643608 
L 375.522422 85.769745 
L 376.329531 85.744034 
L 377.136641 85.416785 
L 377.94375 85.617771 
L 379.557969 85.717328 
L 381.172188 84.773126 
L 381.979297 84.97322 
L 382.786406 84.875862 
L 383.593516 84.631113 
L 385.207734 84.365924 
L 386.014844 83.904028 
L 387.629063 83.790374 
L 390.8575 83.783352 
L 391.664609 83.980062 
L 393.278828 84.011579 
L 394.893047 83.828368 
L 395.700156 83.5948 
L 396.507266 83.504613 
L 397.314375 83.627763 
L 398.121484 83.891939 
L 398.928594 83.660416 
L 401.349922 83.533467 
L 402.157031 83.794791 
L 402.964141 83.845449 
L 403.77125 83.617249 
L 404.578359 83.529093 
L 405.385469 83.580013 
L 406.192578 83.976578 
L 407.806797 83.869094 
L 408.613906 83.506562 
L 409.421016 83.351318 
L 410.228125 83.470338 
L 411.035234 83.452349 
L 413.456562 83.06 
L 414.263672 82.704989 
L 415.070781 82.21663 
L 415.877891 81.999732 
L 419.106328 81.875692 
L 419.913437 82.194539 
L 421.527656 82.496614 
L 422.334766 82.282914 
L 423.141875 82.26812 
L 423.948984 82.121701 
L 424.756094 82.107324 
L 425.563203 81.830775 
L 426.370313 82.013342 
L 427.177422 81.868745 
L 427.984531 81.85504 
L 428.791641 81.646418 
L 429.59875 81.827808 
L 430.405859 81.749567 
L 431.212969 81.542514 
L 432.020078 81.465219 
L 432.827187 81.581148 
L 433.634297 81.439939 
L 434.441406 81.811526 
L 435.248516 81.542651 
L 437.669844 81.314189 
L 438.476953 81.555429 
L 439.284063 81.226699 
L 440.091172 81.277856 
L 440.898281 81.202893 
L 441.705391 81.002601 
L 442.5125 80.991214 
L 443.319609 80.667075 
L 445.740937 80.573105 
L 446.548047 80.500677 
L 447.355156 80.242798 
L 448.162266 80.418504 
L 448.969375 80.346838 
L 449.776484 80.398539 
L 451.390703 79.949735 
L 452.197812 80.001928 
L 454.619141 79.488543 
L 456.233359 79.351549 
L 458.654687 78.305554 
L 462.690234 76.848057 
L 463.497344 76.667058 
L 465.111562 75.951789 
L 465.918672 75.773618 
L 466.725781 75.419137 
L 467.532891 75.419368 
L 468.34 75.302054 
L 469.147109 74.83325 
L 470.761328 74.426974 
L 471.568438 74.195858 
L 472.375547 74.31486 
L 473.182656 73.968671 
L 473.989766 74.145632 
L 474.796875 74.148308 
L 476.411094 73.577165 
L 478.832422 72.613976 
L 480.446641 72.339572 
L 481.25375 72.231645 
L 483.675078 71.456949 
L 484.482188 71.29493 
L 485.289297 71.302889 
L 486.903516 71.149981 
L 487.710625 70.821322 
L 488.517734 70.774068 
L 489.324844 70.391397 
L 492.553281 69.9297 
L 494.1675 69.175903 
L 494.974609 69.187575 
L 497.395937 68.288843 
L 499.817266 67.94602 
L 501.431484 67.538156 
L 503.045703 67.295887 
L 503.852812 67.418952 
L 504.659922 67.379502 
L 505.467031 66.962704 
L 506.274141 66.81655 
L 507.888359 66.847639 
L 508.695469 66.38121 
L 510.309687 66.093556 
L 511.116797 66.16353 
L 511.923906 65.967431 
L 512.731016 65.612809 
L 513.538125 65.577304 
L 516.766562 64.857842 
L 518.380781 64.790204 
L 519.995 64.305099 
L 520.802109 64.220262 
L 523.223437 63.44869 
L 524.030547 63.314119 
L 524.837656 62.921492 
L 525.644766 62.685058 
L 526.451875 62.707065 
L 527.258984 62.368928 
L 528.873203 62.362531 
L 530.487422 61.794198 
L 531.294531 61.715487 
L 532.101641 61.78979 
L 533.715859 61.531689 
L 534.522969 61.099336 
L 535.330078 60.820158 
L 536.944297 60.718248 
L 537.751406 60.441108 
L 538.558516 60.365838 
L 540.172734 59.565153 
L 540.979844 59.491713 
L 545.015391 58.434107 
L 545.8225 58.016805 
L 546.629609 57.946751 
L 551.472266 56.699419 
L 552.279375 56.583451 
L 553.086484 56.321547 
L 555.507812 56.026249 
L 557.122031 55.508443 
L 557.929141 55.44399 
L 559.543359 54.786094 
L 560.350469 54.867312 
L 561.157578 54.804293 
L 563.578906 52.61034 
L 566.807344 52.660063 
L 570.842891 52.321064 
L 571.65 52.498393 
L 571.65 52.498393 
" clip-path="url(#pc3d223f7ad)" style="fill: none; stroke: #93c5fd; stroke-width: 2.6; stroke-linecap: square"/>
   </g>
   <g id="line2d_32">
    <path d="M 55.907109 346.36 
L 105.140781 346.36 
L 105.947891 344.927075 
L 106.755 344.009107 
L 107.562109 342.193495 
L 108.369219 340.888831 
L 109.176328 340.072239 
L 109.983438 339.722185 
L 110.790547 338.94617 
L 111.597656 338.622204 
L 113.211875 337.165397 
L 114.018984 336.054716 
L 115.633203 336.329524 
L 116.440313 332.106165 
L 117.247422 326.820111 
L 118.054531 326.684835 
L 118.861641 326.17208 
L 120.475859 323.698554 
L 121.282969 321.039164 
L 122.090078 320.981687 
L 122.897188 320.567347 
L 124.511406 317.668173 
L 125.318516 317.652085 
L 126.125625 316.952468 
L 126.932734 315.59236 
L 127.739844 315.265524 
L 128.546953 314.284521 
L 129.354062 312.343602 
L 130.968281 311.146626 
L 131.775391 310.250286 
L 132.5825 309.999524 
L 133.389609 308.513049 
L 134.196719 306.442799 
L 135.003828 305.02228 
L 135.810938 303.931086 
L 136.618047 303.159434 
L 137.425156 302.107899 
L 139.039375 301.222857 
L 139.846484 301.079565 
L 140.653594 300.371213 
L 141.460703 300.519786 
L 142.267812 299.551111 
L 143.074922 299.152346 
L 143.882031 298.487273 
L 145.49625 297.730102 
L 146.303359 296.828976 
L 147.917578 296.120398 
L 148.724688 296.03468 
L 149.531797 295.178852 
L 150.338906 294.847554 
L 151.146016 295.027563 
L 153.567344 293.330023 
L 154.374453 293.027224 
L 155.181562 291.758618 
L 155.988672 289.306651 
L 156.795781 288.804172 
L 158.41 286.882411 
L 160.831328 283.420676 
L 161.638438 282.529697 
L 162.445547 281.878367 
L 163.252656 281.685885 
L 164.866875 279.539328 
L 165.673984 277.61097 
L 166.481094 276.146667 
L 167.288203 275.352888 
L 168.095312 275.000327 
L 169.709531 272.190986 
L 171.32375 269.668651 
L 172.130859 269.159921 
L 172.937969 268.245949 
L 173.745078 266.935005 
L 174.552188 266.658378 
L 176.973516 264.654797 
L 178.587734 262.576022 
L 179.394844 261.166085 
L 180.201953 260.162618 
L 181.816172 259.727352 
L 182.623281 259.132948 
L 183.430391 258.735274 
L 184.2375 257.214143 
L 185.044609 256.646424 
L 186.658828 256.639544 
L 187.465937 255.535261 
L 188.273047 254.809108 
L 189.080156 253.91043 
L 189.887266 253.202703 
L 190.694375 252.324286 
L 192.308594 251.306487 
L 193.115703 250.45457 
L 193.922812 249.962458 
L 194.729922 249.649975 
L 195.537031 248.995205 
L 196.344141 248.863771 
L 197.15125 248.220909 
L 197.958359 246.905278 
L 198.765469 246.111589 
L 199.572578 245.494876 
L 200.379687 246.055238 
L 201.186797 245.2794 
L 201.993906 244.34675 
L 202.801016 243.095425 
L 204.415234 241.121328 
L 205.222344 239.745745 
L 206.029453 238.867624 
L 206.836563 237.678723 
L 207.643672 236.183976 
L 208.450781 235.813594 
L 209.257891 234.659357 
L 210.065 233.987321 
L 210.872109 233.166336 
L 211.679219 232.664035 
L 213.293437 230.139534 
L 214.907656 228.577893 
L 215.714766 228.413697 
L 216.521875 227.649314 
L 217.328984 227.042246 
L 218.136094 226.888091 
L 218.943203 226.438987 
L 219.750313 226.2893 
L 220.557422 225.553923 
L 221.364531 225.263911 
L 222.97875 224.113571 
L 223.785859 223.978592 
L 224.592969 223.98819 
L 226.207187 223.439353 
L 227.014297 223.592622 
L 227.821406 223.322617 
L 229.435625 224.461852 
L 230.242734 223.914233 
L 232.664062 221.343792 
L 233.471172 220.411713 
L 234.278281 218.945843 
L 235.085391 218.302755 
L 235.8925 218.068418 
L 236.699609 217.568686 
L 237.506719 217.206523 
L 239.120938 215.83183 
L 239.928047 215.744803 
L 241.542266 214.66115 
L 242.349375 214.320887 
L 243.156484 213.596101 
L 244.770703 211.396742 
L 245.577812 210.821065 
L 246.384922 210.504183 
L 247.192031 209.304922 
L 247.999141 208.997035 
L 248.80625 208.06481 
L 249.613359 207.889484 
L 251.227578 206.923998 
L 252.034687 206.01555 
L 252.841797 205.72863 
L 253.648906 205.321719 
L 254.456016 205.039931 
L 256.070234 203.6372 
L 256.877344 203.485897 
L 257.684453 202.616483 
L 258.491562 202.23161 
L 260.105781 200.641665 
L 260.912891 200.505076 
L 261.72 199.78183 
L 262.527109 198.595864 
L 263.334219 198.118893 
L 264.141328 198.22652 
L 264.948438 197.98611 
L 265.755547 197.401664 
L 266.562656 197.051385 
L 267.369766 195.559609 
L 268.176875 194.76303 
L 268.983984 194.426674 
L 269.791094 193.640344 
L 272.212422 192.211344 
L 273.019531 191.110519 
L 273.826641 190.795087 
L 274.63375 190.039454 
L 276.247969 189.093848 
L 277.055078 188.133797 
L 277.862188 187.725839 
L 278.669297 186.886292 
L 279.476406 186.593998 
L 280.283516 186.519508 
L 281.090625 186.015673 
L 281.897734 185.836685 
L 289.161719 180.442089 
L 289.968828 179.978184 
L 291.583047 179.881482 
L 292.390156 179.01481 
L 294.811484 177.159038 
L 295.618594 176.919003 
L 296.425703 176.982494 
L 297.232812 176.744648 
L 298.039922 176.008524 
L 298.847031 175.476556 
L 300.46125 175.116015 
L 301.268359 174.592206 
L 303.689687 174.213581 
L 305.303906 173.479889 
L 306.111016 172.777933 
L 306.918125 172.466264 
L 307.725234 172.63728 
L 308.532344 172.040546 
L 309.339453 171.925243 
L 310.146563 171.239313 
L 310.953672 170.842488 
L 311.760781 170.258904 
L 312.567891 169.86764 
L 313.375 169.008643 
L 314.182109 168.623712 
L 314.989219 167.58701 
L 316.603437 166.833051 
L 317.410547 166.829908 
L 318.217656 166.549869 
L 319.024766 166.455588 
L 319.831875 165.903171 
L 320.638984 165.628502 
L 323.867422 163.733042 
L 324.674531 163.1987 
L 325.481641 163.116674 
L 326.28875 162.408231 
L 330.324297 159.899036 
L 331.938516 159.3194 
L 332.745625 158.900897 
L 335.166953 158.093454 
L 335.974063 157.510345 
L 337.588281 156.955951 
L 340.009609 156.349251 
L 340.816719 155.865956 
L 341.623828 155.554913 
L 342.430938 154.992039 
L 344.045156 154.968428 
L 344.852266 154.663351 
L 345.659375 154.109206 
L 347.273594 153.591981 
L 348.887812 153.245777 
L 349.694922 152.620665 
L 351.309141 152.446571 
L 352.923359 152.682106 
L 354.537578 152.185121 
L 355.344688 152.221751 
L 356.151797 151.854814 
L 358.573125 151.165866 
L 359.380234 150.566169 
L 364.222891 150.333592 
L 365.837109 149.945039 
L 366.644219 149.518401 
L 367.451328 149.482746 
L 368.258437 148.981944 
L 369.872656 148.682462 
L 370.679766 148.572349 
L 371.486875 148.616327 
L 372.293984 148.430374 
L 373.101094 148.016244 
L 374.715312 147.802165 
L 375.522422 147.468543 
L 377.94375 147.380429 
L 379.557969 146.274456 
L 380.365078 146.173598 
L 381.172188 146.29669 
L 381.979297 146.196275 
L 382.786406 145.874004 
L 383.593516 145.701186 
L 385.207734 145.578805 
L 386.014844 145.334578 
L 386.821953 145.311185 
L 387.629063 145.141831 
L 388.436172 144.754715 
L 389.243281 144.514838 
L 390.050391 144.421136 
L 391.664609 144.451566 
L 392.471719 144.286699 
L 393.278828 144.266253 
L 394.085938 143.95932 
L 395.700156 144.276804 
L 396.507266 144.683404 
L 397.314375 144.946146 
L 398.928594 145.679839 
L 400.542812 146.125447 
L 402.157031 146.70687 
L 405.385469 147.784305 
L 406.192578 148.240801 
L 406.999687 148.557169 
L 407.806797 148.596653 
L 408.613906 148.910763 
L 409.421016 149.086352 
L 410.228125 149.124364 
L 412.649453 149.916633 
L 415.877891 151.068648 
L 418.299219 151.568152 
L 419.106328 151.933342 
L 419.913437 152.030619 
L 420.720547 152.260322 
L 421.527656 152.687854 
L 423.948984 153.498306 
L 424.756094 153.590892 
L 425.563203 153.879751 
L 427.984531 154.087495 
L 428.791641 153.982832 
L 429.59875 154.073177 
L 431.212969 154.510999 
L 432.020078 154.535197 
L 432.827187 154.687888 
L 434.441406 154.799246 
L 435.248516 154.886515 
L 436.055625 155.10092 
L 436.862734 154.996327 
L 437.669844 155.146112 
L 442.5125 154.464452 
L 443.319609 154.237802 
L 445.740937 154.06085 
L 446.548047 153.96099 
L 447.355156 153.613874 
L 448.162266 153.453552 
L 448.969375 153.540539 
L 449.776484 153.442559 
L 450.583594 153.160746 
L 452.197812 152.784042 
L 454.619141 152.984577 
L 456.233359 153.036194 
L 459.461797 152.237251 
L 460.268906 152.144405 
L 461.076016 151.812633 
L 461.883125 151.900113 
L 462.690234 151.7489 
L 463.497344 151.419876 
L 464.304453 151.448261 
L 465.111562 151.29883 
L 465.918672 151.327342 
L 466.725781 151.178734 
L 468.34 150.64817 
L 469.954219 150.063191 
L 470.761328 150.03534 
L 471.568438 149.832647 
L 472.375547 149.863553 
L 474.796875 149.608352 
L 476.411094 148.978675 
L 478.025312 147.894395 
L 479.639531 146.417903 
L 480.446641 146.055007 
L 481.25375 145.237554 
L 483.675078 143.540371 
L 484.482188 142.790354 
L 488.517734 139.810641 
L 490.131953 138.511413 
L 491.746172 137.388656 
L 492.553281 136.774866 
L 493.360391 136.440421 
L 496.588828 135.830024 
L 497.395937 135.884734 
L 498.203047 135.391132 
L 499.817266 134.736977 
L 500.624375 134.084596 
L 501.431484 133.27133 
L 504.659922 130.803806 
L 506.274141 129.690948 
L 508.695469 128.652262 
L 509.502578 128.451023 
L 510.309687 128.037082 
L 511.923906 127.426249 
L 515.152344 125.58394 
L 515.959453 125.390893 
L 517.573672 124.744243 
L 518.380781 124.081852 
L 519.187891 123.735761 
L 519.995 123.234147 
L 521.609219 122.496431 
L 523.223437 122.230739 
L 528.873203 120.853706 
L 529.680312 120.469582 
L 530.487422 120.291118 
L 531.294531 119.909249 
L 532.101641 119.375925 
L 532.90875 119.047722 
L 533.715859 118.568393 
L 537.751406 117.655079 
L 539.365625 116.912857 
L 540.979844 116.475482 
L 542.594062 115.642441 
L 543.401172 115.526413 
L 544.208281 115.261801 
L 545.8225 114.487726 
L 549.050937 113.298936 
L 549.858047 113.188245 
L 550.665156 113.32296 
L 551.472266 113.065803 
L 554.700703 112.726065 
L 555.507812 112.617548 
L 556.314922 112.315556 
L 557.122031 112.208048 
L 557.929141 111.81108 
L 559.543359 111.406126 
L 561.157578 111.09974 
L 561.964687 110.899363 
L 562.771797 110.556103 
L 566.000234 110.049587 
L 566.807344 110.185002 
L 570.035781 109.401791 
L 570.842891 108.877881 
L 571.65 108.919821 
L 571.65 108.919821 
" clip-path="url(#pc3d223f7ad)" style="fill: none; stroke: #3b82f6; stroke-width: 2.6; stroke-linecap: square"/>
   </g>
   <g id="line2d_33">
    <path d="M 55.907109 346.36 
L 126.932734 346.36 
L 128.546953 343.05325 
L 129.354062 342.10795 
L 130.161172 340.859416 
L 130.968281 339.957568 
L 131.775391 339.391459 
L 132.5825 337.269881 
L 133.389609 335.812489 
L 134.196719 335.920117 
L 135.003828 334.809755 
L 135.810938 334.624343 
L 136.618047 333.250863 
L 137.425156 332.199328 
L 138.232266 331.75251 
L 140.653594 325.920539 
L 142.267812 321.562434 
L 143.074922 319.305321 
L 143.882031 317.909922 
L 144.689141 315.997477 
L 145.49625 314.925204 
L 146.303359 314.138205 
L 147.110469 312.837093 
L 147.917578 311.296944 
L 148.724688 309.264532 
L 149.531797 308.038437 
L 151.146016 304.383721 
L 151.953125 302.476667 
L 157.602891 304.895433 
L 158.41 305.219375 
L 159.217109 304.605227 
L 160.024219 303.769055 
L 160.831328 304.094177 
L 161.638438 303.730476 
L 162.445547 302.919742 
L 163.252656 303.01936 
L 164.059766 302.671704 
L 164.866875 302.55042 
L 165.673984 302.211262 
L 166.481094 301.440911 
L 167.288203 301.114615 
L 168.095312 300.578041 
L 169.709531 300.375211 
L 170.516641 300.065495 
L 171.32375 299.133175 
L 172.130859 298.836296 
L 172.937969 298.955695 
L 173.745078 298.664062 
L 174.552188 298.579691 
L 175.359297 297.890585 
L 176.166406 298.013105 
L 176.973516 297.73544 
L 177.780625 297.659398 
L 178.587734 297.781027 
L 179.394844 297.510278 
L 180.201953 297.6313 
L 181.009062 297.557875 
L 181.816172 296.718726 
L 182.623281 296.461555 
L 183.430391 296.396873 
L 184.2375 296.709143 
L 185.044609 296.643727 
L 185.851719 296.207619 
L 186.658828 296.515302 
L 187.465937 296.26878 
L 188.273047 296.572364 
L 189.080156 296.328468 
L 189.887266 295.907305 
L 190.694375 295.849388 
L 191.501484 295.257988 
L 193.115703 294.447886 
L 193.922812 294.574751 
L 194.729922 294.178332 
L 195.537031 293.959409 
L 196.344141 293.055184 
L 197.15125 293.187078 
L 197.958359 292.807458 
L 198.765469 292.26305 
L 199.572578 292.060942 
L 200.379687 291.359556 
L 201.186797 291.330923 
L 201.993906 291.137268 
L 202.801016 290.287994 
L 203.608125 290.102112 
L 206.029453 290.039144 
L 206.836563 288.738116 
L 208.450781 287.44415 
L 209.257891 286.019596 
L 210.065 285.236786 
L 211.679219 282.919823 
L 212.486328 282.473582 
L 213.293437 281.264257 
L 214.100547 280.983698 
L 214.907656 280.553997 
L 215.714766 279.977401 
L 216.521875 279.105657 
L 217.328984 278.841421 
L 218.136094 278.1329 
L 218.943203 276.986657 
L 220.557422 275.461659 
L 221.364531 274.929376 
L 222.171641 273.530021 
L 222.97875 273.446154 
L 223.785859 272.355243 
L 224.592969 271.704599 
L 225.400078 271.345349 
L 226.207187 270.847547 
L 227.014297 270.495694 
L 227.821406 269.865901 
L 228.628516 269.521887 
L 229.435625 268.902434 
L 230.242734 268.843371 
L 231.049844 268.232713 
L 231.856953 267.765036 
L 233.471172 266.433898 
L 234.278281 266.251737 
L 235.085391 265.801332 
L 238.313828 263.376589 
L 239.120938 262.684712 
L 239.928047 262.393088 
L 241.542266 260.905553 
L 243.156484 259.701852 
L 243.963594 259.429206 
L 244.770703 258.518638 
L 246.384922 257.228427 
L 247.192031 256.212149 
L 248.80625 255.709571 
L 249.613359 254.961968 
L 251.227578 254.228219 
L 252.034687 253.619204 
L 252.841797 252.769516 
L 255.263125 250.989585 
L 257.684453 249.97152 
L 258.491562 249.27932 
L 259.298672 249.187284 
L 262.527109 247.304169 
L 263.334219 246.755039 
L 264.948438 246.016659 
L 268.176875 244.345498 
L 268.983984 243.48138 
L 270.598203 242.786881 
L 271.405312 241.938252 
L 275.440859 239.992862 
L 276.247969 239.282836 
L 277.862188 238.641408 
L 278.669297 238.813017 
L 281.090625 237.386041 
L 281.897734 237.345501 
L 283.511953 236.308309 
L 284.319062 236.06008 
L 285.126172 235.496842 
L 285.933281 235.463616 
L 287.5475 234.875437 
L 288.354609 234.948828 
L 289.161719 234.814187 
L 291.583047 233.799571 
L 293.197266 233.644649 
L 294.004375 233.313822 
L 294.811484 233.289177 
L 297.232812 232.714705 
L 298.847031 231.474513 
L 299.654141 231.456426 
L 300.46125 231.240489 
L 301.268359 230.729986 
L 302.075469 230.026144 
L 302.882578 229.816975 
L 303.689687 229.218367 
L 304.496797 229.305317 
L 305.303906 228.712221 
L 307.725234 228.301616 
L 308.532344 227.910937 
L 309.339453 227.236154 
L 313.375 225.712179 
L 314.989219 225.433576 
L 315.796328 224.783176 
L 316.603437 224.32254 
L 317.410547 224.420273 
L 318.217656 224.148186 
L 319.024766 223.41765 
L 319.831875 222.875052 
L 321.446094 222.529212 
L 322.253203 222.812413 
L 323.060313 222.73136 
L 323.867422 222.018241 
L 324.674531 221.759863 
L 325.481641 220.874252 
L 326.28875 220.531259 
L 327.095859 220.458177 
L 328.710078 219.691951 
L 329.517187 219.444975 
L 330.324297 218.846468 
L 331.131406 218.075489 
L 331.938516 218.010845 
L 334.359844 216.601585 
L 335.166953 216.281779 
L 335.974063 215.444992 
L 340.009609 213.548539 
L 340.816719 213.24368 
L 341.623828 212.601481 
L 342.430938 212.639101 
L 343.238047 211.665034 
L 344.045156 211.70506 
L 344.852266 211.158122 
L 347.273594 210.616069 
L 348.887812 209.791209 
L 349.694922 209.670716 
L 351.309141 209.103729 
L 352.11625 208.659006 
L 352.923359 208.379791 
L 353.730469 207.776772 
L 354.537578 207.582549 
L 355.344688 207.065806 
L 357.766016 206.174065 
L 358.573125 206.226778 
L 359.380234 205.880121 
L 360.187344 205.853726 
L 360.994453 205.351089 
L 361.801562 205.405414 
L 362.608672 205.064552 
L 363.415781 204.567928 
L 365.03 203.81753 
L 365.837109 203.328015 
L 366.644219 203.386736 
L 367.451328 202.823108 
L 368.258437 202.650162 
L 369.065547 202.246037 
L 373.101094 199.339695 
L 373.908203 198.416825 
L 375.522422 197.343001 
L 376.329531 196.658923 
L 377.94375 195.601943 
L 378.750859 194.927325 
L 379.557969 194.0315 
L 381.172188 193.221443 
L 381.979297 192.559365 
L 382.786406 192.122899 
L 385.207734 190.458442 
L 386.821953 189.606354 
L 388.436172 188.398215 
L 390.050391 187.34674 
L 390.8575 186.933297 
L 391.664609 186.66616 
L 392.471719 185.896377 
L 393.278828 185.63299 
L 394.085938 184.869333 
L 394.893047 184.323733 
L 396.507266 183.738237 
L 397.314375 183.341105 
L 398.121484 182.733432 
L 399.735703 181.808511 
L 400.542812 180.857143 
L 402.157031 179.947402 
L 402.964141 179.635333 
L 405.385469 178.291745 
L 406.192578 178.055527 
L 406.999687 177.406291 
L 409.421016 176.50451 
L 410.228125 176.001481 
L 411.035234 175.637201 
L 411.842344 175.07033 
L 412.649453 174.302238 
L 413.456562 173.8087 
L 415.070781 173.165612 
L 416.685 172.259592 
L 417.492109 171.776099 
L 418.299219 171.161016 
L 419.106328 170.94899 
L 423.948984 167.72095 
L 424.756094 167.32257 
L 425.563203 167.71263 
L 426.370313 167.381416 
L 427.177422 167.182188 
L 427.984531 166.658157 
L 432.020078 165.102637 
L 432.827187 165.039853 
L 433.634297 164.784855 
L 434.441406 164.274845 
L 435.248516 163.958665 
L 436.055625 163.452567 
L 436.862734 163.330317 
L 438.476953 162.833961 
L 439.284063 162.271261 
L 441.705391 161.037006 
L 442.5125 160.921571 
L 444.933828 159.519018 
L 446.548047 158.738392 
L 447.355156 158.567196 
L 448.969375 157.795269 
L 451.390703 156.12824 
L 452.197812 155.903275 
L 453.812031 155.15151 
L 455.42625 154.527143 
L 456.233359 154.307663 
L 459.461797 152.537565 
L 463.497344 150.646776 
L 464.304453 150.498631 
L 465.918672 149.494662 
L 466.725781 148.759619 
L 469.954219 147.31164 
L 470.761328 147.113842 
L 471.568438 146.56691 
L 473.182656 145.827932 
L 473.989766 145.344619 
L 474.796875 145.152505 
L 476.411094 144.424609 
L 478.025312 143.702268 
L 480.446641 143.028734 
L 482.060859 141.977197 
L 486.903516 139.207231 
L 487.710625 138.976162 
L 489.324844 138.181009 
L 490.131953 137.841474 
L 490.939062 137.726095 
L 491.746172 137.22179 
L 492.553281 137.052462 
L 494.1675 136.217836 
L 494.974609 136.106495 
L 503.852812 131.769147 
L 504.659922 131.290023 
L 508.695469 130.633371 
L 509.502578 130.588957 
L 511.116797 130.181047 
L 511.923906 130.084503 
L 513.538125 129.574567 
L 514.345234 129.373829 
L 515.959453 129.185259 
L 516.766562 128.723217 
L 518.380781 128.433051 
L 519.187891 128.079394 
L 520.802109 127.949423 
L 522.416328 127.144722 
L 523.223437 126.744453 
L 524.837656 126.361669 
L 525.644766 126.016418 
L 526.451875 125.92998 
L 528.066094 125.244486 
L 528.873203 125.159805 
L 529.680312 124.666006 
L 536.944297 122.110811 
L 538.558516 121.754362 
L 539.365625 121.727486 
L 540.172734 121.500423 
L 540.979844 121.024186 
L 544.208281 120.128072 
L 545.015391 119.757166 
L 546.629609 119.4143 
L 547.436719 118.849068 
L 550.665156 117.880782 
L 555.507812 116.112037 
L 557.122031 115.594543 
L 557.929141 115.24044 
L 562.771797 114.000591 
L 563.578906 113.461896 
L 564.386016 113.163351 
L 565.193125 112.722911 
L 566.807344 112.415755 
L 568.421562 112.015903 
L 569.228672 111.72244 
L 570.035781 111.712888 
L 571.65 112.446161 
L 571.65 112.446161 
" clip-path="url(#pc3d223f7ad)" style="fill: none; stroke: #1e3a8a; stroke-width: 2.6; stroke-linecap: square"/>
   </g>
   <g id="patch_3">
    <path d="M 55.1 346.36 
L 55.1 30.4 
" style="fill: none; stroke: #000000; stroke-width: 0.8; stroke-linejoin: miter; stroke-linecap: square"/>
   </g>
   <g id="patch_4">
    <path d="M 55.1 346.36 
L 571.65 346.36 
" style="fill: none; stroke: #000000; stroke-width: 0.8; stroke-linejoin: miter; stroke-linecap: square"/>
   </g>
   <g id="patch_5">
    <path d="M 303.853761 125.984649 
Q 234.299625 180.669728 210.924238 267.900607 
" style="fill: none; stroke: #374151; stroke-width: 1.2; stroke-linecap: round"/>
    <path d="M 213.891436 264.554604 
L 210.924238 267.900607 
L 210.027754 263.519247 
" style="fill: none; stroke: #374151; stroke-width: 1.2; stroke-linecap: round"/>
   </g>
   <g id="text_18">
    <!-- scale moves the curve -->
    <g style="fill: #374151" transform="translate(261.72 98.278661) scale(0.1 -0.1)">
     <defs>
      <path id="DejaVuSans-75" d="M 544 1381 
L 544 3500 
L 1119 3500 
L 1119 1403 
Q 1119 906 1312 657 
Q 1506 409 1894 409 
Q 2359 409 2629 706 
Q 2900 1003 2900 1516 
L 2900 3500 
L 3475 3500 
L 3475 0 
L 2900 0 
L 2900 538 
Q 2691 219 2414 64 
Q 2138 -91 1772 -91 
Q 1169 -91 856 284 
Q 544 659 544 1381 
z
M 1991 3584 
L 1991 3584 
z
" transform="scale(0.015625)"/>
     </defs>
     <use xlink:href="#DejaVuSans-73"/>
     <use xlink:href="#DejaVuSans-63" transform="translate(52.099609 0)"/>
     <use xlink:href="#DejaVuSans-61" transform="translate(107.080078 0)"/>
     <use xlink:href="#DejaVuSans-6c" transform="translate(168.359375 0)"/>
     <use xlink:href="#DejaVuSans-65" transform="translate(196.142578 0)"/>
     <use xlink:href="#DejaVuSans-20" transform="translate(257.666016 0)"/>
     <use xlink:href="#DejaVuSans-6d" transform="translate(289.453125 0)"/>
     <use xlink:href="#DejaVuSans-6f" transform="translate(386.865234 0)"/>
     <use xlink:href="#DejaVuSans-76" transform="translate(448.046875 0)"/>
     <use xlink:href="#DejaVuSans-65" transform="translate(507.226562 0)"/>
     <use xlink:href="#DejaVuSans-73" transform="translate(568.75 0)"/>
     <use xlink:href="#DejaVuSans-20" transform="translate(620.849609 0)"/>
     <use xlink:href="#DejaVuSans-74" transform="translate(652.636719 0)"/>
     <use xlink:href="#DejaVuSans-68" transform="translate(691.845703 0)"/>
     <use xlink:href="#DejaVuSans-65" transform="translate(755.224609 0)"/>
     <use xlink:href="#DejaVuSans-20" transform="translate(816.748047 0)"/>
     <use xlink:href="#DejaVuSans-63" transform="translate(848.535156 0)"/>
     <use xlink:href="#DejaVuSans-75" transform="translate(903.515625 0)"/>
     <use xlink:href="#DejaVuSans-72" transform="translate(966.894531 0)"/>
     <use xlink:href="#DejaVuSans-76" transform="translate(1008.007812 0)"/>
     <use xlink:href="#DejaVuSans-65" transform="translate(1067.1875 0)"/>
    </g>
    <!-- toward the lower-left -->
    <g style="fill: #374151" transform="translate(261.72 109.476473) scale(0.1 -0.1)">
     <defs>
      <path id="DejaVuSans-2d" d="M 313 2009 
L 1997 2009 
L 1997 1497 
L 313 1497 
L 313 2009 
z
" transform="scale(0.015625)"/>
     </defs>
     <use xlink:href="#DejaVuSans-74"/>
     <use xlink:href="#DejaVuSans-6f" transform="translate(39.208984 0)"/>
     <use xlink:href="#DejaVuSans-77" transform="translate(100.390625 0)"/>
     <use xlink:href="#DejaVuSans-61" transform="translate(182.177734 0)"/>
     <use xlink:href="#DejaVuSans-72" transform="translate(243.457031 0)"/>
     <use xlink:href="#DejaVuSans-64" transform="translate(282.820312 0)"/>
     <use xlink:href="#DejaVuSans-20" transform="translate(346.296875 0)"/>
     <use xlink:href="#DejaVuSans-74" transform="translate(378.083984 0)"/>
     <use xlink:href="#DejaVuSans-68" transform="translate(417.292969 0)"/>
     <use xlink:href="#DejaVuSans-65" transform="translate(480.671875 0)"/>
     <use xlink:href="#DejaVuSans-20" transform="translate(542.195312 0)"/>
     <use xlink:href="#DejaVuSans-6c" transform="translate(573.982422 0)"/>
     <use xlink:href="#DejaVuSans-6f" transform="translate(601.765625 0)"/>
     <use xlink:href="#DejaVuSans-77" transform="translate(662.947266 0)"/>
     <use xlink:href="#DejaVuSans-65" transform="translate(744.734375 0)"/>
     <use xlink:href="#DejaVuSans-72" transform="translate(806.257812 0)"/>
     <use xlink:href="#DejaVuSans-2d" transform="translate(840.996094 0)"/>
     <use xlink:href="#DejaVuSans-6c" transform="translate(877.080078 0)"/>
     <use xlink:href="#DejaVuSans-65" transform="translate(904.863281 0)"/>
     <use xlink:href="#DejaVuSans-66" transform="translate(966.386719 0)"/>
     <use xlink:href="#DejaVuSans-74" transform="translate(999.841797 0)"/>
    </g>
    <!-- (better selective prediction) -->
    <g style="fill: #374151" transform="translate(261.72 120.674286) scale(0.1 -0.1)">
     <defs>
      <path id="DejaVuSans-62" d="M 3116 1747 
Q 3116 2381 2855 2742 
Q 2594 3103 2138 3103 
Q 1681 3103 1420 2742 
Q 1159 2381 1159 1747 
Q 1159 1113 1420 752 
Q 1681 391 2138 391 
Q 2594 391 2855 752 
Q 3116 1113 3116 1747 
z
M 1159 2969 
Q 1341 3281 1617 3432 
Q 1894 3584 2278 3584 
Q 2916 3584 3314 3078 
Q 3713 2572 3713 1747 
Q 3713 922 3314 415 
Q 2916 -91 2278 -91 
Q 1894 -91 1617 61 
Q 1341 213 1159 525 
L 1159 0 
L 581 0 
L 581 4863 
L 1159 4863 
L 1159 2969 
z
" transform="scale(0.015625)"/>
      <path id="DejaVuSans-70" d="M 1159 525 
L 1159 -1331 
L 581 -1331 
L 581 3500 
L 1159 3500 
L 1159 2969 
Q 1341 3281 1617 3432 
Q 1894 3584 2278 3584 
Q 2916 3584 3314 3078 
Q 3713 2572 3713 1747 
Q 3713 922 3314 415 
Q 2916 -91 2278 -91 
Q 1894 -91 1617 61 
Q 1341 213 1159 525 
z
M 3116 1747 
Q 3116 2381 2855 2742 
Q 2594 3103 2138 3103 
Q 1681 3103 1420 2742 
Q 1159 2381 1159 1747 
Q 1159 1113 1420 752 
Q 1681 391 2138 391 
Q 2594 391 2855 752 
Q 3116 1113 3116 1747 
z
" transform="scale(0.015625)"/>
     </defs>
     <use xlink:href="#DejaVuSans-28"/>
     <use xlink:href="#DejaVuSans-62" transform="translate(39.013672 0)"/>
     <use xlink:href="#DejaVuSans-65" transform="translate(102.490234 0)"/>
     <use xlink:href="#DejaVuSans-74" transform="translate(164.013672 0)"/>
     <use xlink:href="#DejaVuSans-74" transform="translate(203.222656 0)"/>
     <use xlink:href="#DejaVuSans-65" transform="translate(242.431641 0)"/>
     <use xlink:href="#DejaVuSans-72" transform="translate(303.955078 0)"/>
     <use xlink:href="#DejaVuSans-20" transform="translate(345.068359 0)"/>
     <use xlink:href="#DejaVuSans-73" transform="translate(376.855469 0)"/>
     <use xlink:href="#DejaVuSans-65" transform="translate(428.955078 0)"/>
     <use xlink:href="#DejaVuSans-6c" transform="translate(490.478516 0)"/>
     <use xlink:href="#DejaVuSans-65" transform="translate(518.261719 0)"/>
     <use xlink:href="#DejaVuSans-63" transform="translate(579.785156 0)"/>
     <use xlink:href="#DejaVuSans-74" transform="translate(634.765625 0)"/>
     <use xlink:href="#DejaVuSans-69" transform="translate(673.974609 0)"/>
     <use xlink:href="#DejaVuSans-76" transform="translate(701.757812 0)"/>
     <use xlink:href="#DejaVuSans-65" transform="translate(760.9375 0)"/>
     <use xlink:href="#DejaVuSans-20" transform="translate(822.460938 0)"/>
     <use xlink:href="#DejaVuSans-70" transform="translate(854.248047 0)"/>
     <use xlink:href="#DejaVuSans-72" transform="translate(917.724609 0)"/>
     <use xlink:href="#DejaVuSans-65" transform="translate(956.587891 0)"/>
     <use xlink:href="#DejaVuSans-64" transform="translate(1018.111328 0)"/>
     <use xlink:href="#DejaVuSans-69" transform="translate(1081.587891 0)"/>
     <use xlink:href="#DejaVuSans-63" transform="translate(1109.371094 0)"/>
     <use xlink:href="#DejaVuSans-74" transform="translate(1164.351562 0)"/>
     <use xlink:href="#DejaVuSans-69" transform="translate(1203.560547 0)"/>
     <use xlink:href="#DejaVuSans-6f" transform="translate(1231.34375 0)"/>
     <use xlink:href="#DejaVuSans-6e" transform="translate(1292.525391 0)"/>
     <use xlink:href="#DejaVuSans-29" transform="translate(1355.904297 0)"/>
    </g>
   </g>
   <g id="text_19">
    <!-- E-AURC removes each model's base-accuracy advantage, -->
    <g style="fill: #6b7280" transform="translate(321.062937 328.754925) scale(0.085 -0.085)">
     <defs>
      <path id="DejaVuSans-45" d="M 628 4666 
L 3578 4666 
L 3578 4134 
L 1259 4134 
L 1259 2753 
L 3481 2753 
L 3481 2222 
L 1259 2222 
L 1259 531 
L 3634 531 
L 3634 0 
L 628 0 
L 628 4666 
z
" transform="scale(0.015625)"/>
      <path id="DejaVuSans-41" d="M 2188 4044 
L 1331 1722 
L 3047 1722 
L 2188 4044 
z
M 1831 4666 
L 2547 4666 
L 4325 0 
L 3669 0 
L 3244 1197 
L 1141 1197 
L 716 0 
L 50 0 
L 1831 4666 
z
" transform="scale(0.015625)"/>
      <path id="DejaVuSans-55" d="M 556 4666 
L 1191 4666 
L 1191 1831 
Q 1191 1081 1462 751 
Q 1734 422 2344 422 
Q 2950 422 3222 751 
Q 3494 1081 3494 1831 
L 3494 4666 
L 4128 4666 
L 4128 1753 
Q 4128 841 3676 375 
Q 3225 -91 2344 -91 
Q 1459 -91 1007 375 
Q 556 841 556 1753 
L 556 4666 
z
" transform="scale(0.015625)"/>
      <path id="DejaVuSans-52" d="M 2841 2188 
Q 3044 2119 3236 1894 
Q 3428 1669 3622 1275 
L 4263 0 
L 3584 0 
L 2988 1197 
Q 2756 1666 2539 1819 
Q 2322 1972 1947 1972 
L 1259 1972 
L 1259 0 
L 628 0 
L 628 4666 
L 2053 4666 
Q 2853 4666 3247 4331 
Q 3641 3997 3641 3322 
Q 3641 2881 3436 2590 
Q 3231 2300 2841 2188 
z
M 1259 4147 
L 1259 2491 
L 2053 2491 
Q 2509 2491 2742 2702 
Q 2975 2913 2975 3322 
Q 2975 3731 2742 3939 
Q 2509 4147 2053 4147 
L 1259 4147 
z
" transform="scale(0.015625)"/>
      <path id="DejaVuSans-43" d="M 4122 4306 
L 4122 3641 
Q 3803 3938 3442 4084 
Q 3081 4231 2675 4231 
Q 1875 4231 1450 3742 
Q 1025 3253 1025 2328 
Q 1025 1406 1450 917 
Q 1875 428 2675 428 
Q 3081 428 3442 575 
Q 3803 722 4122 1019 
L 4122 359 
Q 3791 134 3420 21 
Q 3050 -91 2638 -91 
Q 1578 -91 968 557 
Q 359 1206 359 2328 
Q 359 3453 968 4101 
Q 1578 4750 2638 4750 
Q 3056 4750 3426 4639 
Q 3797 4528 4122 4306 
z
" transform="scale(0.015625)"/>
      <path id="DejaVuSans-27" d="M 1147 4666 
L 1147 2931 
L 616 2931 
L 616 4666 
L 1147 4666 
z
" transform="scale(0.015625)"/>
      <path id="DejaVuSans-79" d="M 2059 -325 
Q 1816 -950 1584 -1140 
Q 1353 -1331 966 -1331 
L 506 -1331 
L 506 -850 
L 844 -850 
Q 1081 -850 1212 -737 
Q 1344 -625 1503 -206 
L 1606 56 
L 191 3500 
L 800 3500 
L 1894 763 
L 2988 3500 
L 3597 3500 
L 2059 -325 
z
" transform="scale(0.015625)"/>
      <path id="DejaVuSans-2c" d="M 750 794 
L 1409 794 
L 1409 256 
L 897 -744 
L 494 -744 
L 750 256 
L 750 794 
z
" transform="scale(0.015625)"/>
     </defs>
     <use xlink:href="#DejaVuSans-45"/>
     <use xlink:href="#DejaVuSans-2d" transform="translate(63.183594 0)"/>
     <use xlink:href="#DejaVuSans-41" transform="translate(97.017578 0)"/>
     <use xlink:href="#DejaVuSans-55" transform="translate(165.425781 0)"/>
     <use xlink:href="#DejaVuSans-52" transform="translate(238.619141 0)"/>
     <use xlink:href="#DejaVuSans-43" transform="translate(303.101562 0)"/>
     <use xlink:href="#DejaVuSans-20" transform="translate(372.925781 0)"/>
     <use xlink:href="#DejaVuSans-72" transform="translate(404.712891 0)"/>
     <use xlink:href="#DejaVuSans-65" transform="translate(443.576172 0)"/>
     <use xlink:href="#DejaVuSans-6d" transform="translate(505.099609 0)"/>
     <use xlink:href="#DejaVuSans-6f" transform="translate(602.511719 0)"/>
     <use xlink:href="#DejaVuSans-76" transform="translate(663.693359 0)"/>
     <use xlink:href="#DejaVuSans-65" transform="translate(722.873047 0)"/>
     <use xlink:href="#DejaVuSans-73" transform="translate(784.396484 0)"/>
     <use xlink:href="#DejaVuSans-20" transform="translate(836.496094 0)"/>
     <use xlink:href="#DejaVuSans-65" transform="translate(868.283203 0)"/>
     <use xlink:href="#DejaVuSans-61" transform="translate(929.806641 0)"/>
     <use xlink:href="#DejaVuSans-63" transform="translate(991.085938 0)"/>
     <use xlink:href="#DejaVuSans-68" transform="translate(1046.066406 0)"/>
     <use xlink:href="#DejaVuSans-20" transform="translate(1109.445312 0)"/>
     <use xlink:href="#DejaVuSans-6d" transform="translate(1141.232422 0)"/>
     <use xlink:href="#DejaVuSans-6f" transform="translate(1238.644531 0)"/>
     <use xlink:href="#DejaVuSans-64" transform="translate(1299.826172 0)"/>
     <use xlink:href="#DejaVuSans-65" transform="translate(1363.302734 0)"/>
     <use xlink:href="#DejaVuSans-6c" transform="translate(1424.826172 0)"/>
     <use xlink:href="#DejaVuSans-27" transform="translate(1452.609375 0)"/>
     <use xlink:href="#DejaVuSans-73" transform="translate(1480.099609 0)"/>
     <use xlink:href="#DejaVuSans-20" transform="translate(1532.199219 0)"/>
     <use xlink:href="#DejaVuSans-62" transform="translate(1563.986328 0)"/>
     <use xlink:href="#DejaVuSans-61" transform="translate(1627.462891 0)"/>
     <use xlink:href="#DejaVuSans-73" transform="translate(1688.742188 0)"/>
     <use xlink:href="#DejaVuSans-65" transform="translate(1740.841797 0)"/>
     <use xlink:href="#DejaVuSans-2d" transform="translate(1802.365234 0)"/>
     <use xlink:href="#DejaVuSans-61" transform="translate(1838.449219 0)"/>
     <use xlink:href="#DejaVuSans-63" transform="translate(1899.728516 0)"/>
     <use xlink:href="#DejaVuSans-63" transform="translate(1954.708984 0)"/>
     <use xlink:href="#DejaVuSans-75" transform="translate(2009.689453 0)"/>
     <use xlink:href="#DejaVuSans-72" transform="translate(2073.068359 0)"/>
     <use xlink:href="#DejaVuSans-61" transform="translate(2114.181641 0)"/>
     <use xlink:href="#DejaVuSans-63" transform="translate(2175.460938 0)"/>
     <use xlink:href="#DejaVuSans-79" transform="translate(2230.441406 0)"/>
     <use xlink:href="#DejaVuSans-20" transform="translate(2289.621094 0)"/>
     <use xlink:href="#DejaVuSans-61" transform="translate(2321.408203 0)"/>
     <use xlink:href="#DejaVuSans-64" transform="translate(2382.6875 0)"/>
     <use xlink:href="#DejaVuSans-76" transform="translate(2446.164062 0)"/>
     <use xlink:href="#DejaVuSans-61" transform="translate(2505.34375 0)"/>
     <use xlink:href="#DejaVuSans-6e" transform="translate(2566.623047 0)"/>
     <use xlink:href="#DejaVuSans-74" transform="translate(2630.001953 0)"/>
     <use xlink:href="#DejaVuSans-61" transform="translate(2669.210938 0)"/>
     <use xlink:href="#DejaVuSans-67" transform="translate(2730.490234 0)"/>
     <use xlink:href="#DejaVuSans-65" transform="translate(2793.966797 0)"/>
     <use xlink:href="#DejaVuSans-2c" transform="translate(2855.490234 0)"/>
    </g>
    <!-- so only calibration quality is compared -->
    <g style="fill: #6b7280" transform="translate(401.826219 338.273066) scale(0.085 -0.085)">
     <defs>
      <path id="DejaVuSans-71" d="M 947 1747 
Q 947 1113 1208 752 
Q 1469 391 1925 391 
Q 2381 391 2643 752 
Q 2906 1113 2906 1747 
Q 2906 2381 2643 2742 
Q 2381 3103 1925 3103 
Q 1469 3103 1208 2742 
Q 947 2381 947 1747 
z
M 2906 525 
Q 2725 213 2448 61 
Q 2172 -91 1784 -91 
Q 1150 -91 751 415 
Q 353 922 353 1747 
Q 353 2572 751 3078 
Q 1150 3584 1784 3584 
Q 2172 3584 2448 3432 
Q 2725 3281 2906 2969 
L 2906 3500 
L 3481 3500 
L 3481 -1331 
L 2906 -1331 
L 2906 525 
z
" transform="scale(0.015625)"/>
     </defs>
     <use xlink:href="#DejaVuSans-73"/>
     <use xlink:href="#DejaVuSans-6f" transform="translate(52.099609 0)"/>
     <use xlink:href="#DejaVuSans-20" transform="translate(113.28125 0)"/>
     <use xlink:href="#DejaVuSans-6f" transform="translate(145.068359 0)"/>
     <use xlink:href="#DejaVuSans-6e" transform="translate(206.25 0)"/>
     <use xlink:href="#DejaVuSans-6c" transform="translate(269.628906 0)"/>
     <use xlink:href="#DejaVuSans-79" transform="translate(297.412109 0)"/>
     <use xlink:href="#DejaVuSans-20" transform="translate(356.591797 0)"/>
     <use xlink:href="#DejaVuSans-63" transform="translate(388.378906 0)"/>
     <use xlink:href="#DejaVuSans-61" transform="translate(443.359375 0)"/>
     <use xlink:href="#DejaVuSans-6c" transform="translate(504.638672 0)"/>
     <use xlink:href="#DejaVuSans-69" transform="translate(532.421875 0)"/>
     <use xlink:href="#DejaVuSans-62" transform="translate(560.205078 0)"/>
     <use xlink:href="#DejaVuSans-72" transform="translate(623.681641 0)"/>
     <use xlink:href="#DejaVuSans-61" transform="translate(664.794922 0)"/>
     <use xlink:href="#DejaVuSans-74" transform="translate(726.074219 0)"/>
     <use xlink:href="#DejaVuSans-69" transform="translate(765.283203 0)"/>
     <use xlink:href="#DejaVuSans-6f" transform="translate(793.066406 0)"/>
     <use xlink:href="#DejaVuSans-6e" transform="translate(854.248047 0)"/>
     <use xlink:href="#DejaVuSans-20" transform="translate(917.626953 0)"/>
     <use xlink:href="#DejaVuSans-71" transform="translate(949.414062 0)"/>
     <use xlink:href="#DejaVuSans-75" transform="translate(1012.890625 0)"/>
     <use xlink:href="#DejaVuSans-61" transform="translate(1076.269531 0)"/>
     <use xlink:href="#DejaVuSans-6c" transform="translate(1137.548828 0)"/>
     <use xlink:href="#DejaVuSans-69" transform="translate(1165.332031 0)"/>
     <use xlink:href="#DejaVuSans-74" transform="translate(1193.115234 0)"/>
     <use xlink:href="#DejaVuSans-79" transform="translate(1232.324219 0)"/>
     <use xlink:href="#DejaVuSans-20" transform="translate(1291.503906 0)"/>
     <use xlink:href="#DejaVuSans-69" transform="translate(1323.291016 0)"/>
     <use xlink:href="#DejaVuSans-73" transform="translate(1351.074219 0)"/>
     <use xlink:href="#DejaVuSans-20" transform="translate(1403.173828 0)"/>
     <use xlink:href="#DejaVuSans-63" transform="translate(1434.960938 0)"/>
     <use xlink:href="#DejaVuSans-6f" transform="translate(1489.941406 0)"/>
     <use xlink:href="#DejaVuSans-6d" transform="translate(1551.123047 0)"/>
     <use xlink:href="#DejaVuSans-70" transform="translate(1648.535156 0)"/>
     <use xlink:href="#DejaVuSans-61" transform="translate(1712.011719 0)"/>
     <use xlink:href="#DejaVuSans-72" transform="translate(1773.291016 0)"/>
     <use xlink:href="#DejaVuSans-65" transform="translate(1812.154297 0)"/>
     <use xlink:href="#DejaVuSans-64" transform="translate(1873.677734 0)"/>
    </g>
   </g>
   <g id="text_20">
    <!-- The confidence frontier sharpens with scale (P1) -->
    <g transform="translate(161.970703 20.4) scale(0.125 -0.125)">
     <defs>
      <path id="DejaVuSans-54" d="M -19 4666 
L 3928 4666 
L 3928 4134 
L 2272 4134 
L 2272 0 
L 1638 0 
L 1638 4134 
L -19 4134 
L -19 4666 
z
" transform="scale(0.015625)"/>
      <path id="DejaVuSans-50" d="M 1259 4147 
L 1259 2394 
L 2053 2394 
Q 2494 2394 2734 2622 
Q 2975 2850 2975 3272 
Q 2975 3691 2734 3919 
Q 2494 4147 2053 4147 
L 1259 4147 
z
M 628 4666 
L 2053 4666 
Q 2838 4666 3239 4311 
Q 3641 3956 3641 3272 
Q 3641 2581 3239 2228 
Q 2838 1875 2053 1875 
L 1259 1875 
L 1259 0 
L 628 0 
L 628 4666 
z
" transform="scale(0.015625)"/>
     </defs>
     <use xlink:href="#DejaVuSans-54"/>
     <use xlink:href="#DejaVuSans-68" transform="translate(61.083984 0)"/>
     <use xlink:href="#DejaVuSans-65" transform="translate(124.462891 0)"/>
     <use xlink:href="#DejaVuSans-20" transform="translate(185.986328 0)"/>
     <use xlink:href="#DejaVuSans-63" transform="translate(217.773438 0)"/>
     <use xlink:href="#DejaVuSans-6f" transform="translate(272.753906 0)"/>
     <use xlink:href="#DejaVuSans-6e" transform="translate(333.935547 0)"/>
     <use xlink:href="#DejaVuSans-66" transform="translate(397.314453 0)"/>
     <use xlink:href="#DejaVuSans-69" transform="translate(432.519531 0)"/>
     <use xlink:href="#DejaVuSans-64" transform="translate(460.302734 0)"/>
     <use xlink:href="#DejaVuSans-65" transform="translate(523.779297 0)"/>
     <use xlink:href="#DejaVuSans-6e" transform="translate(585.302734 0)"/>
     <use xlink:href="#DejaVuSans-63" transform="translate(648.681641 0)"/>
     <use xlink:href="#DejaVuSans-65" transform="translate(703.662109 0)"/>
     <use xlink:href="#DejaVuSans-20" transform="translate(765.185547 0)"/>
     <use xlink:href="#DejaVuSans-66" transform="translate(796.972656 0)"/>
     <use xlink:href="#DejaVuSans-72" transform="translate(832.177734 0)"/>
     <use xlink:href="#DejaVuSans-6f" transform="translate(871.041016 0)"/>
     <use xlink:href="#DejaVuSans-6e" transform="translate(932.222656 0)"/>
     <use xlink:href="#DejaVuSans-74" transform="translate(995.601562 0)"/>
     <use xlink:href="#DejaVuSans-69" transform="translate(1034.810547 0)"/>
     <use xlink:href="#DejaVuSans-65" transform="translate(1062.59375 0)"/>
     <use xlink:href="#DejaVuSans-72" transform="translate(1124.117188 0)"/>
     <use xlink:href="#DejaVuSans-20" transform="translate(1165.230469 0)"/>
     <use xlink:href="#DejaVuSans-73" transform="translate(1197.017578 0)"/>
     <use xlink:href="#DejaVuSans-68" transform="translate(1249.117188 0)"/>
     <use xlink:href="#DejaVuSans-61" transform="translate(1312.496094 0)"/>
     <use xlink:href="#DejaVuSans-72" transform="translate(1373.775391 0)"/>
     <use xlink:href="#DejaVuSans-70" transform="translate(1414.888672 0)"/>
     <use xlink:href="#DejaVuSans-65" transform="translate(1478.365234 0)"/>
     <use xlink:href="#DejaVuSans-6e" transform="translate(1539.888672 0)"/>
     <use xlink:href="#DejaVuSans-73" transform="translate(1603.267578 0)"/>
     <use xlink:href="#DejaVuSans-20" transform="translate(1655.367188 0)"/>
     <use xlink:href="#DejaVuSans-77" transform="translate(1687.154297 0)"/>
     <use xlink:href="#DejaVuSans-69" transform="translate(1768.941406 0)"/>
     <use xlink:href="#DejaVuSans-74" transform="translate(1796.724609 0)"/>
     <use xlink:href="#DejaVuSans-68" transform="translate(1835.933594 0)"/>
     <use xlink:href="#DejaVuSans-20" transform="translate(1899.3125 0)"/>
     <use xlink:href="#DejaVuSans-73" transform="translate(1931.099609 0)"/>
     <use xlink:href="#DejaVuSans-63" transform="translate(1983.199219 0)"/>
     <use xlink:href="#DejaVuSans-61" transform="translate(2038.179688 0)"/>
     <use xlink:href="#DejaVuSans-6c" transform="translate(2099.458984 0)"/>
     <use xlink:href="#DejaVuSans-65" transform="translate(2127.242188 0)"/>
     <use xlink:href="#DejaVuSans-20" transform="translate(2188.765625 0)"/>
     <use xlink:href="#DejaVuSans-28" transform="translate(2220.552734 0)"/>
     <use xlink:href="#DejaVuSans-50" transform="translate(2259.566406 0)"/>
     <use xlink:href="#DejaVuSans-31" transform="translate(2319.869141 0)"/>
     <use xlink:href="#DejaVuSans-29" transform="translate(2383.492188 0)"/>
    </g>
   </g>
   <g id="legend_1">
    <g id="text_21">
     <!-- confidence-ranked curve  (lower = better) -->
     <g transform="translate(73.951563 46.998437) scale(0.1 -0.1)">
      <defs>
       <path id="DejaVuSans-3d" d="M 678 2906 
L 4684 2906 
L 4684 2381 
L 678 2381 
L 678 2906 
z
M 678 1631 
L 4684 1631 
L 4684 1100 
L 678 1100 
L 678 1631 
z
" transform="scale(0.015625)"/>
      </defs>
      <use xlink:href="#DejaVuSans-63"/>
      <use xlink:href="#DejaVuSans-6f" transform="translate(54.980469 0)"/>
      <use xlink:href="#DejaVuSans-6e" transform="translate(116.162109 0)"/>
      <use xlink:href="#DejaVuSans-66" transform="translate(179.541016 0)"/>
      <use xlink:href="#DejaVuSans-69" transform="translate(214.746094 0)"/>
      <use xlink:href="#DejaVuSans-64" transform="translate(242.529297 0)"/>
      <use xlink:href="#DejaVuSans-65" transform="translate(306.005859 0)"/>
      <use xlink:href="#DejaVuSans-6e" transform="translate(367.529297 0)"/>
      <use xlink:href="#DejaVuSans-63" transform="translate(430.908203 0)"/>
      <use xlink:href="#DejaVuSans-65" transform="translate(485.888672 0)"/>
      <use xlink:href="#DejaVuSans-2d" transform="translate(547.412109 0)"/>
      <use xlink:href="#DejaVuSans-72" transform="translate(583.496094 0)"/>
      <use xlink:href="#DejaVuSans-61" transform="translate(624.609375 0)"/>
      <use xlink:href="#DejaVuSans-6e" transform="translate(685.888672 0)"/>
      <use xlink:href="#DejaVuSans-6b" transform="translate(749.267578 0)"/>
      <use xlink:href="#DejaVuSans-65" transform="translate(803.552734 0)"/>
      <use xlink:href="#DejaVuSans-64" transform="translate(865.076172 0)"/>
      <use xlink:href="#DejaVuSans-20" transform="translate(928.552734 0)"/>
      <use xlink:href="#DejaVuSans-63" transform="translate(960.339844 0)"/>
      <use xlink:href="#DejaVuSans-75" transform="translate(1015.320312 0)"/>
      <use xlink:href="#DejaVuSans-72" transform="translate(1078.699219 0)"/>
      <use xlink:href="#DejaVuSans-76" transform="translate(1119.8125 0)"/>
      <use xlink:href="#DejaVuSans-65" transform="translate(1178.992188 0)"/>
      <use xlink:href="#DejaVuSans-20" transform="translate(1240.515625 0)"/>
      <use xlink:href="#DejaVuSans-20" transform="translate(1272.302734 0)"/>
      <use xlink:href="#DejaVuSans-28" transform="translate(1304.089844 0)"/>
      <use xlink:href="#DejaVuSans-6c" transform="translate(1343.103516 0)"/>
      <use xlink:href="#DejaVuSans-6f" transform="translate(1370.886719 0)"/>
      <use xlink:href="#DejaVuSans-77" transform="translate(1432.068359 0)"/>
      <use xlink:href="#DejaVuSans-65" transform="translate(1513.855469 0)"/>
      <use xlink:href="#DejaVuSans-72" transform="translate(1575.378906 0)"/>
      <use xlink:href="#DejaVuSans-20" transform="translate(1616.492188 0)"/>
      <use xlink:href="#DejaVuSans-3d" transform="translate(1648.279297 0)"/>
      <use xlink:href="#DejaVuSans-20" transform="translate(1732.068359 0)"/>
      <use xlink:href="#DejaVuSans-62" transform="translate(1763.855469 0)"/>
      <use xlink:href="#DejaVuSans-65" transform="translate(1827.332031 0)"/>
      <use xlink:href="#DejaVuSans-74" transform="translate(1888.855469 0)"/>
      <use xlink:href="#DejaVuSans-74" transform="translate(1928.064453 0)"/>
      <use xlink:href="#DejaVuSans-65" transform="translate(1967.273438 0)"/>
      <use xlink:href="#DejaVuSans-72" transform="translate(2028.796875 0)"/>
      <use xlink:href="#DejaVuSans-29" transform="translate(2069.910156 0)"/>
     </g>
    </g>
    <g id="line2d_34">
     <path d="M 64.1 58.176562 
L 74.1 58.176562 
L 84.1 58.176562 
" style="fill: none; stroke: #93c5fd; stroke-width: 2.6; stroke-linecap: square"/>
    </g>
    <g id="text_22">
     <!-- haiku-4.5  (AURC 0.291, E-AURC 0.202) -->
     <g transform="translate(92.1 61.676562) scale(0.1 -0.1)">
      <defs>
       <path id="DejaVuSans-39" d="M 703 97 
L 703 672 
Q 941 559 1184 500 
Q 1428 441 1663 441 
Q 2288 441 2617 861 
Q 2947 1281 2994 2138 
Q 2813 1869 2534 1725 
Q 2256 1581 1919 1581 
Q 1219 1581 811 2004 
Q 403 2428 403 3163 
Q 403 3881 828 4315 
Q 1253 4750 1959 4750 
Q 2769 4750 3195 4129 
Q 3622 3509 3622 2328 
Q 3622 1225 3098 567 
Q 2575 -91 1691 -91 
Q 1453 -91 1209 -44 
Q 966 3 703 97 
z
M 1959 2075 
Q 2384 2075 2632 2365 
Q 2881 2656 2881 3163 
Q 2881 3666 2632 3958 
Q 2384 4250 1959 4250 
Q 1534 4250 1286 3958 
Q 1038 3666 1038 3163 
Q 1038 2656 1286 2365 
Q 1534 2075 1959 2075 
z
" transform="scale(0.015625)"/>
      </defs>
      <use xlink:href="#DejaVuSans-68"/>
      <use xlink:href="#DejaVuSans-61" transform="translate(63.378906 0)"/>
      <use xlink:href="#DejaVuSans-69" transform="translate(124.658203 0)"/>
      <use xlink:href="#DejaVuSans-6b" transform="translate(152.441406 0)"/>
      <use xlink:href="#DejaVuSans-75" transform="translate(207.226562 0)"/>
      <use xlink:href="#DejaVuSans-2d" transform="translate(270.605469 0)"/>
      <use xlink:href="#DejaVuSans-34" transform="translate(306.689453 0)"/>
      <use xlink:href="#DejaVuSans-2e" transform="translate(370.3125 0)"/>
      <use xlink:href="#DejaVuSans-35" transform="translate(402.099609 0)"/>
      <use xlink:href="#DejaVuSans-20" transform="translate(465.722656 0)"/>
      <use xlink:href="#DejaVuSans-20" transform="translate(497.509766 0)"/>
      <use xlink:href="#DejaVuSans-28" transform="translate(529.296875 0)"/>
      <use xlink:href="#DejaVuSans-41" transform="translate(568.310547 0)"/>
      <use xlink:href="#DejaVuSans-55" transform="translate(636.71875 0)"/>
      <use xlink:href="#DejaVuSans-52" transform="translate(709.912109 0)"/>
      <use xlink:href="#DejaVuSans-43" transform="translate(774.394531 0)"/>
      <use xlink:href="#DejaVuSans-20" transform="translate(844.21875 0)"/>
      <use xlink:href="#DejaVuSans-30" transform="translate(876.005859 0)"/>
      <use xlink:href="#DejaVuSans-2e" transform="translate(939.628906 0)"/>
      <use xlink:href="#DejaVuSans-32" transform="translate(971.416016 0)"/>
      <use xlink:href="#DejaVuSans-39" transform="translate(1035.039062 0)"/>
      <use xlink:href="#DejaVuSans-31" transform="translate(1098.662109 0)"/>
      <use xlink:href="#DejaVuSans-2c" transform="translate(1162.285156 0)"/>
      <use xlink:href="#DejaVuSans-20" transform="translate(1194.072266 0)"/>
      <use xlink:href="#DejaVuSans-45" transform="translate(1225.859375 0)"/>
      <use xlink:href="#DejaVuSans-2d" transform="translate(1289.042969 0)"/>
      <use xlink:href="#DejaVuSans-41" transform="translate(1322.876953 0)"/>
      <use xlink:href="#DejaVuSans-55" transform="translate(1391.285156 0)"/>
      <use xlink:href="#DejaVuSans-52" transform="translate(1464.478516 0)"/>
      <use xlink:href="#DejaVuSans-43" transform="translate(1528.960938 0)"/>
      <use xlink:href="#DejaVuSans-20" transform="translate(1598.785156 0)"/>
      <use xlink:href="#DejaVuSans-30" transform="translate(1630.572266 0)"/>
      <use xlink:href="#DejaVuSans-2e" transform="translate(1694.195312 0)"/>
      <use xlink:href="#DejaVuSans-32" transform="translate(1725.982422 0)"/>
      <use xlink:href="#DejaVuSans-30" transform="translate(1789.605469 0)"/>
      <use xlink:href="#DejaVuSans-32" transform="translate(1853.228516 0)"/>
      <use xlink:href="#DejaVuSans-29" transform="translate(1916.851562 0)"/>
     </g>
    </g>
    <g id="line2d_35">
     <path d="M 64.1 72.854688 
L 74.1 72.854688 
L 84.1 72.854688 
" style="fill: none; stroke: #3b82f6; stroke-width: 2.6; stroke-linecap: square"/>
    </g>
    <g id="text_23">
     <!-- sonnet-4.6  (AURC 0.191, E-AURC 0.135) -->
     <g transform="translate(92.1 76.354688) scale(0.1 -0.1)">
      <use xlink:href="#DejaVuSans-73"/>
      <use xlink:href="#DejaVuSans-6f" transform="translate(52.099609 0)"/>
      <use xlink:href="#DejaVuSans-6e" transform="translate(113.28125 0)"/>
      <use xlink:href="#DejaVuSans-6e" transform="translate(176.660156 0)"/>
      <use xlink:href="#DejaVuSans-65" transform="translate(240.039062 0)"/>
      <use xlink:href="#DejaVuSans-74" transform="translate(301.5625 0)"/>
      <use xlink:href="#DejaVuSans-2d" transform="translate(340.771484 0)"/>
      <use xlink:href="#DejaVuSans-34" transform="translate(376.855469 0)"/>
      <use xlink:href="#DejaVuSans-2e" transform="translate(440.478516 0)"/>
      <use xlink:href="#DejaVuSans-36" transform="translate(472.265625 0)"/>
      <use xlink:href="#DejaVuSans-20" transform="translate(535.888672 0)"/>
      <use xlink:href="#DejaVuSans-20" transform="translate(567.675781 0)"/>
      <use xlink:href="#DejaVuSans-28" transform="translate(599.462891 0)"/>
      <use xlink:href="#DejaVuSans-41" transform="translate(638.476562 0)"/>
      <use xlink:href="#DejaVuSans-55" transform="translate(706.884766 0)"/>
      <use xlink:href="#DejaVuSans-52" transform="translate(780.078125 0)"/>
      <use xlink:href="#DejaVuSans-43" transform="translate(844.560547 0)"/>
      <use xlink:href="#DejaVuSans-20" transform="translate(914.384766 0)"/>
      <use xlink:href="#DejaVuSans-30" transform="translate(946.171875 0)"/>
      <use xlink:href="#DejaVuSans-2e" transform="translate(1009.794922 0)"/>
      <use xlink:href="#DejaVuSans-31" transform="translate(1041.582031 0)"/>
      <use xlink:href="#DejaVuSans-39" transform="translate(1105.205078 0)"/>
      <use xlink:href="#DejaVuSans-31" transform="translate(1168.828125 0)"/>
      <use xlink:href="#DejaVuSans-2c" transform="translate(1232.451172 0)"/>
      <use xlink:href="#DejaVuSans-20" transform="translate(1264.238281 0)"/>
      <use xlink:href="#DejaVuSans-45" transform="translate(1296.025391 0)"/>
      <use xlink:href="#DejaVuSans-2d" transform="translate(1359.208984 0)"/>
      <use xlink:href="#DejaVuSans-41" transform="translate(1393.042969 0)"/>
      <use xlink:href="#DejaVuSans-55" transform="translate(1461.451172 0)"/>
      <use xlink:href="#DejaVuSans-52" transform="translate(1534.644531 0)"/>
      <use xlink:href="#DejaVuSans-43" transform="translate(1599.126953 0)"/>
      <use xlink:href="#DejaVuSans-20" transform="translate(1668.951172 0)"/>
      <use xlink:href="#DejaVuSans-30" transform="translate(1700.738281 0)"/>
      <use xlink:href="#DejaVuSans-2e" transform="translate(1764.361328 0)"/>
      <use xlink:href="#DejaVuSans-31" transform="translate(1796.148438 0)"/>
      <use xlink:href="#DejaVuSans-33" transform="translate(1859.771484 0)"/>
      <use xlink:href="#DejaVuSans-35" transform="translate(1923.394531 0)"/>
      <use xlink:href="#DejaVuSans-29" transform="translate(1987.017578 0)"/>
     </g>
    </g>
    <g id="line2d_36">
     <path d="M 64.1 87.532812 
L 74.1 87.532812 
L 84.1 87.532812 
" style="fill: none; stroke: #1e3a8a; stroke-width: 2.6; stroke-linecap: square"/>
    </g>
    <g id="text_24">
     <!-- opus-4.8  (AURC 0.156, E-AURC 0.101) -->
     <g transform="translate(92.1 91.032812) scale(0.1 -0.1)">
      <use xlink:href="#DejaVuSans-6f"/>
      <use xlink:href="#DejaVuSans-70" transform="translate(61.181641 0)"/>
      <use xlink:href="#DejaVuSans-75" transform="translate(124.658203 0)"/>
      <use xlink:href="#DejaVuSans-73" transform="translate(188.037109 0)"/>
      <use xlink:href="#DejaVuSans-2d" transform="translate(240.136719 0)"/>
      <use xlink:href="#DejaVuSans-34" transform="translate(276.220703 0)"/>
      <use xlink:href="#DejaVuSans-2e" transform="translate(339.84375 0)"/>
      <use xlink:href="#DejaVuSans-38" transform="translate(371.630859 0)"/>
      <use xlink:href="#DejaVuSans-20" transform="translate(435.253906 0)"/>
      <use xlink:href="#DejaVuSans-20" transform="translate(467.041016 0)"/>
      <use xlink:href="#DejaVuSans-28" transform="translate(498.828125 0)"/>
      <use xlink:href="#DejaVuSans-41" transform="translate(537.841797 0)"/>
      <use xlink:href="#DejaVuSans-55" transform="translate(606.25 0)"/>
      <use xlink:href="#DejaVuSans-52" transform="translate(679.443359 0)"/>
      <use xlink:href="#DejaVuSans-43" transform="translate(743.925781 0)"/>
      <use xlink:href="#DejaVuSans-20" transform="translate(813.75 0)"/>
      <use xlink:href="#DejaVuSans-30" transform="translate(845.537109 0)"/>
      <use xlink:href="#DejaVuSans-2e" transform="translate(909.160156 0)"/>
      <use xlink:href="#DejaVuSans-31" transform="translate(940.947266 0)"/>
      <use xlink:href="#DejaVuSans-35" transform="translate(1004.570312 0)"/>
      <use xlink:href="#DejaVuSans-36" transform="translate(1068.193359 0)"/>
      <use xlink:href="#DejaVuSans-2c" transform="translate(1131.816406 0)"/>
      <use xlink:href="#DejaVuSans-20" transform="translate(1163.603516 0)"/>
      <use xlink:href="#DejaVuSans-45" transform="translate(1195.390625 0)"/>
      <use xlink:href="#DejaVuSans-2d" transform="translate(1258.574219 0)"/>
      <use xlink:href="#DejaVuSans-41" transform="translate(1292.408203 0)"/>
      <use xlink:href="#DejaVuSans-55" transform="translate(1360.816406 0)"/>
      <use xlink:href="#DejaVuSans-52" transform="translate(1434.009766 0)"/>
      <use xlink:href="#DejaVuSans-43" transform="translate(1498.492188 0)"/>
      <use xlink:href="#DejaVuSans-20" transform="translate(1568.316406 0)"/>
      <use xlink:href="#DejaVuSans-30" transform="translate(1600.103516 0)"/>
      <use xlink:href="#DejaVuSans-2e" transform="translate(1663.726562 0)"/>
      <use xlink:href="#DejaVuSans-31" transform="translate(1695.513672 0)"/>
      <use xlink:href="#DejaVuSans-30" transform="translate(1759.136719 0)"/>
      <use xlink:href="#DejaVuSans-31" transform="translate(1822.759766 0)"/>
      <use xlink:href="#DejaVuSans-29" transform="translate(1886.382812 0)"/>
     </g>
    </g>
   </g>
  </g>
 </g>
 <defs>
  <clipPath id="pc3d223f7ad">
   <rect x="55.1" y="30.4" width="516.55" height="315.96"/>
  </clipPath>
 </defs>
</svg>
